<svg width="2e3" height="1600" version="1.1" viewBox="0 0 2e3 1600" xmlns="http://www.w3.org/2000/svg">
 <defs>
  <clipPath id="clipPath3">
   <path transform="translate(-1208.6 -95.527)" d="m809.52 70.742h635.48v458.15h-635.48z"/>
  </clipPath>
  <clipPath id="clipPath5">
   <path transform="translate(-1169.2 -95.527)" d="m809.52 70.742h635.48v458.15h-635.48z"/>
  </clipPath>
  <clipPath id="clipPath7">
   <path transform="translate(-1129.8 -95.527)" d="m809.52 70.742h635.48v458.15h-635.48z"/>
  </clipPath>
  <clipPath id="clipPath9">
   <path transform="translate(-1092.1 -95.527)" d="m809.52 70.742h635.48v458.15h-635.48z"/>
  </clipPath>
  <clipPath id="clipPath11">
   <path transform="translate(-1052.8 -95.527)" d="m809.52 70.742h635.48v458.15h-635.48z"/>
  </clipPath>
  <clipPath id="clipPath13">
   <path transform="translate(-1013.4 -95.527)" d="m809.52 70.742h635.48v458.15h-635.48z"/>
  </clipPath>
  <clipPath id="clipPath15">
   <path transform="translate(-975.67 -95.527)" d="m809.52 70.742h635.48v458.15h-635.48z"/>
  </clipPath>
  <clipPath id="clipPath17">
   <path transform="translate(-1240.3 -86.746)" d="m0 1200h1500v-1200h-1500z"/>
  </clipPath>
  <clipPath id="clipPath19">
   <path transform="translate(-1265.7 -97.073)" d="m0 1200h1500v-1200h-1500z"/>
  </clipPath>
  <clipPath id="clipPath21">
   <path transform="translate(-756.97 -370.22)" d="m0 1200h1500v-1200h-1500z"/>
  </clipPath>
  <clipPath id="clipPath23">
   <path transform="translate(-1091.9 -304.16)" d="m0 1200h1500v-1200h-1500z"/>
  </clipPath>
  <clipPath id="clipPath25">
   <path transform="translate(-1105.3 -309.98)" d="m0 1200h1500v-1200h-1500z"/>
  </clipPath>
  <clipPath id="clipPath27">
   <path transform="translate(-1085.4 -329.09)" d="m0 1200h1500v-1200h-1500z"/>
  </clipPath>
  <clipPath id="clipPath29">
   <path transform="translate(-1077.4 -344.41)" d="m0 1200h1500v-1200h-1500z"/>
  </clipPath>
  <clipPath id="clipPath31">
   <path transform="translate(-1062.9 -286.45)" d="m0 1200h1500v-1200h-1500z"/>
  </clipPath>
  <clipPath id="clipPath33">
   <path transform="translate(-1076.7 -343.4)" d="m0 1200h1500v-1200h-1500z"/>
  </clipPath>
  <clipPath id="clipPath35">
   <path transform="translate(-1106.3 -311.28)" d="m0 1200h1500v-1200h-1500z"/>
  </clipPath>
  <clipPath id="clipPath37">
   <path transform="translate(-1108.7 -312.86)" d="m0 1200h1500v-1200h-1500z"/>
  </clipPath>
  <clipPath id="clipPath39">
   <path transform="translate(-1145 -317.28)" d="m0 1200h1500v-1200h-1500z"/>
  </clipPath>
  <clipPath id="clipPath41">
   <path transform="translate(-1107 -295.75)" d="m0 1200h1500v-1200h-1500z"/>
  </clipPath>
  <clipPath id="clipPath43">
   <path transform="translate(-1143.6 -316.87)" d="m0 1200h1500v-1200h-1500z"/>
  </clipPath>
  <clipPath id="clipPath45">
   <path transform="translate(-905.69 -371.58)" d="m0 1200h1500v-1200h-1500z"/>
  </clipPath>
  <clipPath id="clipPath47">
   <path transform="translate(-1029.7 -333.35)" d="m0 1200h1500v-1200h-1500z"/>
  </clipPath>
  <clipPath id="clipPath49">
   <path transform="translate(-1123.8 -316.56)" d="m0 1200h1500v-1200h-1500z"/>
  </clipPath>
  <clipPath id="clipPath51">
   <path transform="translate(-1131.9 -328.65)" d="m0 1200h1500v-1200h-1500z"/>
  </clipPath>
  <clipPath id="clipPath53">
   <path transform="translate(-1105.5 -336.22)" d="m0 1200h1500v-1200h-1500z"/>
  </clipPath>
  <clipPath id="clipPath55">
   <path transform="translate(-354.04 -155.47)" d="m0 1200h1500v-1200h-1500z"/>
  </clipPath>
  <clipPath id="clipPath57">
   <path transform="translate(-770.44 -78.625)" d="m0 1200h1500v-1200h-1500z"/>
  </clipPath>
  <clipPath id="clipPath59">
   <path transform="translate(-614.91 -181.43)" d="m0 1200h1500v-1200h-1500z"/>
  </clipPath>
  <clipPath id="clipPath61">
   <path transform="translate(-622.75 -178.12)" d="m0 1200h1500v-1200h-1500z"/>
  </clipPath>
  <clipPath id="clipPath63">
   <path transform="translate(-618.13 -177.37)" d="m0 1200h1500v-1200h-1500z"/>
  </clipPath>
  <clipPath id="clipPath65">
   <path transform="translate(-765.63 -107.92)" d="m0 1200h1500v-1200h-1500z"/>
  </clipPath>
  <clipPath id="clipPath67">
   <path transform="translate(-764.48 -118.37)" d="m0 1200h1500v-1200h-1500z"/>
  </clipPath>
  <clipPath id="clipPath69">
   <path transform="translate(-743.21 -76.352)" d="m0 1200h1500v-1200h-1500z"/>
  </clipPath>
  <clipPath id="clipPath71">
   <path transform="translate(-607.1 -188.41)" d="m0 1200h1500v-1200h-1500z"/>
  </clipPath>
  <clipPath id="clipPath73">
   <path transform="translate(-586.09 -182.11)" d="m0 1200h1500v-1200h-1500z"/>
  </clipPath>
  <clipPath id="clipPath75">
   <path transform="translate(-618.03 -158.25)" d="m0 1200h1500v-1200h-1500z"/>
  </clipPath>
  <clipPath id="clipPath77">
   <path transform="translate(-733.91 -107.44)" d="m0 1200h1500v-1200h-1500z"/>
  </clipPath>
  <clipPath id="clipPath79">
   <path transform="translate(-703.76 -70.832)" d="m0 1200h1500v-1200h-1500z"/>
  </clipPath>
  <clipPath id="clipPath81">
   <path transform="translate(-562.64 -178.57)" d="m0 1200h1500v-1200h-1500z"/>
  </clipPath>
  <clipPath id="clipPath83">
   <path transform="translate(-553.47 -177.57)" d="m0 1200h1500v-1200h-1500z"/>
  </clipPath>
  <clipPath id="clipPath85">
   <path transform="translate(-545.17 -117.09)" d="m0 1200h1500v-1200h-1500z"/>
  </clipPath>
  <clipPath id="clipPath87">
   <path transform="translate(-653.91 -70.195)" d="m0 1200h1500v-1200h-1500z"/>
  </clipPath>
  <clipPath id="clipPath89">
   <path transform="translate(-521.38 -92.091)" d="m0 1200h1500v-1200h-1500z"/>
  </clipPath>
  <clipPath id="clipPath91">
   <path transform="translate(-350.72 -122.43)" d="m0 1200h1500v-1200h-1500z"/>
  </clipPath>
  <clipPath id="clipPath93">
   <path transform="translate(-350.72 -122.43)" d="m0 1200h1500v-1200h-1500z"/>
  </clipPath>
  <clipPath id="clipPath95">
   <path transform="translate(-593.57 -188.02)" d="m0 1200h1500v-1200h-1500z"/>
  </clipPath>
  <clipPath id="clipPath97">
   <path transform="translate(-490.62 -483.99)" d="m0 1200h1500v-1200h-1500z"/>
  </clipPath>
  <clipPath id="clipPath99">
   <path transform="translate(-405.05 -366.49)" d="m0 1200h1500v-1200h-1500z"/>
  </clipPath>
  <clipPath id="clipPath101">
   <path transform="translate(-691.96 -101.47)" d="m0 1200h1500v-1200h-1500z"/>
  </clipPath>
  <clipPath id="clipPath103">
   <path transform="translate(-641.59 -100.03)" d="m0 1200h1500v-1200h-1500z"/>
  </clipPath>
  <clipPath id="clipPath105">
   <path transform="translate(-659.12 -108.46)" d="m0 1200h1500v-1200h-1500z"/>
  </clipPath>
  <clipPath id="clipPath107">
   <path transform="translate(-713.02 -111.66)" d="m0 1200h1500v-1200h-1500z"/>
  </clipPath>
  <clipPath id="clipPath109">
   <path transform="translate(-750.46 -116.52)" d="m0 1200h1500v-1200h-1500z"/>
  </clipPath>
  <clipPath id="clipPath111">
   <path transform="translate(-780.15 -117.23)" d="m0 1200h1500v-1200h-1500z"/>
  </clipPath>
  <clipPath id="clipPath113">
   <path transform="translate(-399.97 -846.48)" d="m0 1200h1500v-1200h-1500z"/>
  </clipPath>
  <clipPath id="clipPath115">
   <path transform="translate(-1136.8 -230.61)" d="m0 1200h1500v-1200h-1500z"/>
  </clipPath>
  <clipPath id="clipPath117">
   <path transform="translate(-995.4 -366.26)" d="m0 1200h1500v-1200h-1500z"/>
  </clipPath>
  <clipPath id="clipPath119">
   <path transform="translate(-1135.6 -236.44)" d="m0 1200h1500v-1200h-1500z"/>
  </clipPath>
  <clipPath id="clipPath121">
   <path transform="translate(-1091.6 -233.15)" d="m0 1200h1500v-1200h-1500z"/>
  </clipPath>
  <clipPath id="clipPath123">
   <path transform="translate(-1141.8 -211.89)" d="m0 1200h1500v-1200h-1500z"/>
  </clipPath>
  <clipPath id="clipPath125">
   <path transform="translate(-1000.4 -347.54)" d="m0 1200h1500v-1200h-1500z"/>
  </clipPath>
  <clipPath id="clipPath127">
   <path transform="translate(-1140.6 -217.72)" d="m0 1200h1500v-1200h-1500z"/>
  </clipPath>
  <clipPath id="clipPath129">
   <path transform="translate(-1096.7 -214.19)" d="m0 1200h1500v-1200h-1500z"/>
  </clipPath>
  <clipPath id="clipPath131">
   <path transform="translate(-1125.9 -210.29)" d="m0 1200h1500v-1200h-1500z"/>
  </clipPath>
  <clipPath id="clipPath133">
   <path transform="translate(-1133.6 -239.8)" d="m0 1200h1500v-1200h-1500z"/>
  </clipPath>
  <clipPath id="clipPath135">
   <path transform="translate(-1137 -198.14)" d="m0 1200h1500v-1200h-1500z"/>
  </clipPath>
  <clipPath id="clipPath137">
   <path transform="translate(-993.27 -334.09)" d="m0 1200h1500v-1200h-1500z"/>
  </clipPath>
  <clipPath id="clipPath139">
   <path transform="translate(-1137.7 -206.19)" d="m0 1200h1500v-1200h-1500z"/>
  </clipPath>
  <clipPath id="clipPath141">
   <path transform="translate(-1126.9 -202.4)" d="m0 1200h1500v-1200h-1500z"/>
  </clipPath>
  <clipPath id="clipPath143">
   <path transform="translate(-1137.5 -210.02)" d="m0 1200h1500v-1200h-1500z"/>
  </clipPath>
  <clipPath id="clipPath145">
   <path transform="translate(-1098.2 -169.53)" d="m0 1200h1500v-1200h-1500z"/>
  </clipPath>
  <clipPath id="clipPath147">
   <path transform="translate(-821.87 -338.7)" d="m0 1200h1500v-1200h-1500z"/>
  </clipPath>
  <clipPath id="clipPath149">
   <path transform="translate(-919.12 -271.31)" d="m0 1200h1500v-1200h-1500z"/>
  </clipPath>
  <clipPath id="clipPath151">
   <path transform="translate(-821 -340.18)" d="m0 1200h1500v-1200h-1500z"/>
  </clipPath>
  <clipPath id="clipPath153">
   <path transform="translate(-405.02 -366.48)" d="m0 1200h1500v-1200h-1500z"/>
  </clipPath>
  <clipPath id="clipPath155">
   <path transform="translate(-1085 -181.55)" d="m0 1200h1500v-1200h-1500z"/>
  </clipPath>
  <clipPath id="clipPath157">
   <path transform="translate(-1090.6 -206.72)" d="m0 1200h1500v-1200h-1500z"/>
  </clipPath>
  <clipPath id="clipPath159">
   <path transform="translate(-1122.8 -206.34)" d="m0 1200h1500v-1200h-1500z"/>
  </clipPath>
  <clipPath id="clipPath161">
   <path transform="translate(-1119.5 -233.91)" d="m0 1200h1500v-1200h-1500z"/>
  </clipPath>
  <clipPath id="clipPath163">
   <path transform="translate(-994.45 -349.4)" d="m0 1200h1500v-1200h-1500z"/>
  </clipPath>
  <clipPath id="clipPath165">
   <path transform="translate(-951.02 -286.88)" d="m0 1200h1500v-1200h-1500z"/>
  </clipPath>
  <clipPath id="clipPath167">
   <path transform="translate(-496.98 -635.15)" d="m0 1200h1500v-1200h-1500z"/>
  </clipPath>
  <clipPath id="clipPath169">
   <path transform="translate(-495.02 -637.5)" d="m0 1200h1500v-1200h-1500z"/>
  </clipPath>
  <clipPath id="clipPath171">
   <path transform="translate(-545.78 -1069.1)" d="m0 1200h1500v-1200h-1500z"/>
  </clipPath>
  <clipPath id="clipPath173">
   <path transform="translate(-536.85 -1067.7)" d="m0 1200h1500v-1200h-1500z"/>
  </clipPath>
  <clipPath id="clipPath175">
   <path transform="translate(-530.33 -1063.7)" d="m0 1200h1500v-1200h-1500z"/>
  </clipPath>
  <clipPath id="clipPath177">
   <path transform="translate(-525.64 -1059.3)" d="m0 1200h1500v-1200h-1500z"/>
  </clipPath>
  <clipPath id="clipPath179">
   <path transform="translate(-496.15 -1029.2)" d="m0 1200h1500v-1200h-1500z"/>
  </clipPath>
  <clipPath id="clipPath181">
   <path transform="translate(-493.01 -1022.7)" d="m0 1200h1500v-1200h-1500z"/>
  </clipPath>
  <clipPath id="clipPath183">
   <path transform="translate(-490.72 -1016.3)" d="m0 1200h1500v-1200h-1500z"/>
  </clipPath>
  <clipPath id="clipPath185">
   <path transform="translate(-523.42 -1055.4)" d="m0 1200h1500v-1200h-1500z"/>
  </clipPath>
  <clipPath id="clipPath187">
   <path transform="translate(-490.78 -1028.2)" d="m0 1200h1500v-1200h-1500z"/>
  </clipPath>
  <clipPath id="clipPath189">
   <path transform="translate(-487.74 -1021.6)" d="m0 1200h1500v-1200h-1500z"/>
  </clipPath>
  <clipPath id="clipPath191">
   <path transform="translate(-485.04 -1014.3)" d="m0 1200h1500v-1200h-1500z"/>
  </clipPath>
  <clipPath id="clipPath193">
   <path transform="translate(-489.46 -1033.8)" d="m0 1200h1500v-1200h-1500z"/>
  </clipPath>
  <clipPath id="clipPath195">
   <path transform="translate(-486.27 -1027.1)" d="m0 1200h1500v-1200h-1500z"/>
  </clipPath>
  <clipPath id="clipPath197">
   <path transform="translate(-483.47 -1020)" d="m0 1200h1500v-1200h-1500z"/>
  </clipPath>
  <clipPath id="clipPath199">
   <path transform="translate(-537.79 -1074.9)" d="m0 1200h1500v-1200h-1500z"/>
  </clipPath>
  <clipPath id="clipPath201">
   <path transform="translate(-531.17 -1070.3)" d="m0 1200h1500v-1200h-1500z"/>
  </clipPath>
  <clipPath id="clipPath203">
   <path transform="translate(-524.61 -1065.3)" d="m0 1200h1500v-1200h-1500z"/>
  </clipPath>
  <clipPath id="clipPath205">
   <path transform="translate(-531.59 -1076.6)" d="m0 1200h1500v-1200h-1500z"/>
  </clipPath>
  <clipPath id="clipPath207">
   <path transform="translate(-525.86 -1072.8)" d="m0 1200h1500v-1200h-1500z"/>
  </clipPath>
  <clipPath id="clipPath209">
   <path transform="translate(-519.89 -1068.6)" d="m0 1200h1500v-1200h-1500z"/>
  </clipPath>
 </defs>
 <path transform="matrix(1.3333 0 0 -1.3333 0 1600)" d="m0 0h1500z" fill="#5d5d5d"/>
 <g fill="#00b0f0" fill-rule="evenodd">
  <path transform="matrix(1.3333 0 0 -1.3333 1611.5 1472.6)" d="m0 0c0 1.415 1.148 2.564 2.568 2.564h27.405c1.421 0 2.57-1.149 2.57-2.564s-1.149-2.564-2.57-2.564h-27.405c-1.42 0-2.568 1.149-2.568 2.564" clip-path="url(#clipPath3)"/>
  <path transform="matrix(1.3333 0 0 -1.3333 1559 1472.6)" d="m0 0c0 1.415 1.154 2.564 2.569 2.564h27.41c1.416 0 2.569-1.149 2.569-2.564s-1.153-2.564-2.569-2.564h-27.41c-1.415 0-2.569 1.149-2.569 2.564" clip-path="url(#clipPath5)"/>
  <path transform="matrix(1.3333 0 0 -1.3333 1506.4 1472.6)" d="m0 0c0 1.415 1.149 2.564 2.569 2.564h27.405c1.42 0 2.569-1.149 2.569-2.564s-1.149-2.564-2.569-2.564h-27.405c-1.42 0-2.569 1.149-2.569 2.564" clip-path="url(#clipPath7)"/>
  <path transform="matrix(1.3333 0 0 -1.3333 1456.2 1472.6)" d="m0 0c0 1.415 1.151 2.564 2.569 2.564h27.407c1.42 0 2.57-1.149 2.57-2.564s-1.15-2.564-2.57-2.564h-27.407c-1.418 0-2.569 1.149-2.569 2.564" clip-path="url(#clipPath9)"/>
  <path transform="matrix(1.3333 0 0 -1.3333 1403.7 1472.6)" d="m0 0c0 1.415 1.152 2.564 2.569 2.564h27.408c1.418 0 2.569-1.149 2.569-2.564s-1.151-2.564-2.569-2.564h-27.408c-1.417 0-2.569 1.149-2.569 2.564" clip-path="url(#clipPath11)"/>
  <path transform="matrix(1.3333 0 0 -1.3333 1351.1 1472.6)" d="m0 0c0 1.415 1.148 2.564 2.568 2.564h27.405c1.421 0 2.57-1.149 2.57-2.564s-1.149-2.564-2.57-2.564h-27.405c-1.42 0-2.568 1.149-2.568 2.564" clip-path="url(#clipPath13)"/>
  <path transform="matrix(1.3333 0 0 -1.3333 1300.9 1472.6)" d="m0 0c0 1.415 1.151 2.564 2.569 2.564h27.408c1.417 0 2.569-1.149 2.569-2.564s-1.152-2.564-2.569-2.564h-27.408c-1.418 0-2.569 1.149-2.569 2.564" clip-path="url(#clipPath15)"/>
  <path transform="matrix(1.3333 0 0 -1.3333 1653.8 1484.3)" d="m0 0c-1.872 0-3.383-1.476-3.383-3.297 0-1.816 1.511-3.292 3.383-3.292 1.867 0 3.382 1.476 3.382 3.292 0 1.821-1.515 3.297-3.382 3.297m0-8.817c-3.131 0-5.671 2.473-5.671 5.52 0 3.051 2.54 5.52 5.671 5.52s5.67-2.469 5.67-5.52c0-3.047-2.539-5.52-5.67-5.52m-26.815-0.114c0-1.111-0.903-2.013-2.018-2.013h-21.315c-1.116 0-2.018 0.902-2.018 2.013v0.469c-0.063 0.207-0.108 0.421-0.108 0.649v9.038c0 0.226 0.045 0.441 0.108 0.648v0.983c0 1.113 0.902 2.013 2.018 2.013h21.315c1.115 0 2.018-0.9 2.018-2.013zm-46.159 4.577c0-1.018-0.828-1.847-1.849-1.847h-23.234c-1.023 0-1.852 0.829-1.852 1.847v2.63c0 1.022 0.829 1.849 1.852 1.849h23.234c1.021 0 1.849-0.827 1.849-1.849zm-45.949 0c0-1.018-0.829-1.847-1.852-1.847h-23.233c-0.265 0-0.516 0.058-0.745 0.159-0.223 0.056-0.407 0.182-0.536 0.359-0.352 0.336-0.572 0.807-0.572 1.329v2.63c0 1.022 0.832 1.849 1.853 1.849h23.233c1.023 0 1.852-0.827 1.852-1.849zm151.16 12.283h-460.16c-1.583 0-2.87-1.25-2.87-2.796v-9.173c0-6.608 5.505-11.964 12.292-11.964h441.32c6.785 0 12.29 5.356 12.29 11.964v9.173c0 1.546-1.285 2.796-2.87 2.796" clip-path="url(#clipPath17)"/>
  <path transform="matrix(1.3333 0 0 -1.3333 1687.6 1470.6)" d="m0 0 158.48 429.48c0.673 1.826 2.705 2.762 4.532 2.089l8.21-3.015c6.358-2.338 9.614-9.382 7.276-15.733l-152.44-413.1c-2.344-6.353-9.4-9.605-15.762-7.266l-8.205 3.016c-1.831 0.672-2.765 2.699-2.093 4.526" clip-path="url(#clipPath19)"/>
 </g>
 <g>
  <g>
   <path transform="matrix(1.3333 0 0 -1.3333 1009.3 1106.4)" d="m0 0c-18.208 8.184-34.522 16.683-51.794 25.68-40.952 21.334-87.367 45.514-170.97 69.87-24.581 7.162-36.702 10.928-43.593 18.218-3.638 3.848-5.421 8.165-6.246 13.658-5.943 1.611-11.953 3.189-18.057 4.722-0.546-42.499-18.101-96.099-30.542-141.47 31.972-11.054 61.95-17.448 94.152-22.761 56.07 0.616 109.46-3.202 189.66-25.246 19.953-5.487 42.938 21.917 57.063 42.657-4.322 5.768-10.924 10.735-19.676 14.669m22.983-9.698c1.9 2.924 3.572 5.618 4.982 7.954-3.432-0.765-6.761-1.717-9.925-2.895 1.86-1.631 3.504-3.321 4.943-5.059m-244.16 110.69c21.053-6.134 39.701-12.228 56.502-18.264l0.756 9.14c-32.825 12.327-66.312 23.799-102.56 33.871 2.924-11.867 13.052-15.35 45.305-24.747m250.72-87.757s6.291 1.922 11.42 8.419c-14.592-7.8-36.027 3.678-42.84 6.261-56.945 21.611-107.15 43.223-158.83 62.744l-0.651-9.127c75.37-27.432 113-53.582 163.68-76.362 5.171-2.324 9.546-4.935 13.209-7.754 4.52 1.814 9.377 3.155 14.389 4.134 1.966 3.366 3.067 5.425 3.067 5.425s6.449-1.265 11.979 0.556c-6.399 1.361-15.428 5.704-15.428 5.704m-357.29-48.078c26.389 0.502 49.922 1.487 72.315 2.15-22.339 4.458-44.325 10.004-67.255 17.895-1.857-6.921-3.574-13.63-5.06-20.045" clip-path="url(#clipPath21)" fill="#3eb5f1"/>
   <path transform="matrix(1.3333 0 0 -1.3333 1455.9 1194.4)" d="m0 0c4.331-2.259 11.328 0.122 13.934 2.83 1.701 1.769 1.153 3.235 0.838 3.784-3.926 6.856-19.931 20.63-20.61 21.215l-1.788 1.535-0.764-2.236c-0.209-0.611-4.972-15.138 6.964-26.127 0.424-0.389 0.903-0.726 1.426-0.997z" clip-path="url(#clipPath23)" fill="#513633"/>
   <path transform="matrix(1.3333 0 0 -1.3333 1473.8 1186.7)" d="m0 0c1.426-2.489-9.32-7.702-13.731-3.645-11.304 10.414-6.535 24.439-6.535 24.439s16.43-14.097 20.266-20.794" clip-path="url(#clipPath25)" fill="#b7886f"/>
   <path transform="matrix(1.3333 0 0 -1.3333 1447.2 1161.2)" d="m0 0c7.641-6.973 14.94-13.847 18.437-19.606-0.627-1.092-1.621-1.791-2.801-2.29-3.132 6.706-9.231 14.256-15.636 21.896" clip-path="url(#clipPath27)" fill="#ffb997"/>
   <path transform="matrix(1.3333 0 0 -1.3333 1436.5 1140.8)" d="m0 0c-11.124 8-21.438 17.166-30.664 27.244-6.218 5.638-51.372 39.457-66.466 36.7-10.664-1.951-19.156-11.001-21.632-23.055-0.73-3.563-0.871-7.267-0.452-10.934 9.239 0.015 16.819 0.049 22.969 0.104 13.957 0.125 23.533 2.133 26.991 3.299l4.676 1.578s-5.623-4.827-5.31-4.267c-5.3-1.228-15.752-3.35-26.332-3.444-6.059-0.055-13.506-0.089-22.554-0.105 0.171-0.876 0.365-1.75 0.604-2.614 4.168-15.089 34.011-32.293 58.349-33.756 5.84-8.052 12.78-11.452 20.339-13.362-4.591-12.919 2.522-30.411 12.777-36.373 5.449-3.168 10.129-2.252 13.099-0.925 5.757 2.578 9.335 8.384 10.219 12.689 0.09 0.437 0.156 0.867 0.196 1.286 0.459 4.896 1.511 11.022 2.526 16.946 2.802 16.32 4.244 26.415 0.665 28.989" clip-path="url(#clipPath29)" fill="#3eb5f1"/>
   <path transform="matrix(1.3333 0 0 -1.3333 1417.2 1218.1)" d="m0 0c-3.591-1.604-7.441-1.343-11.163 0.821-8.957 5.208-16.237 21.456-11.843 33.824l0.045 0.126c9.17-10.181 20.122-19.136 30.869-26.751-1.515-3.164-4.295-6.402-7.908-8.02m-43.627 49.967-0.59 0.813-1.003 0.061c-11.153 0.671-23.545 4.757-33.91 10.385 13.655-6.4 29.837-10.219 42.923-8.441 3.014-5.283 6.65-10.312 10.694-15.091-8.044 2.214-13.508 5.921-18.114 12.273m-19.342 63.982c12.085-6.131 26.192-15.707 35.632-22.674-0.075 0.01-0.161 0.02-0.234 0.031-14.138 2.102-25.37 13.414-35.398 22.643m76.201-57.706c0.399-0.287 0.688-0.827 0.889-1.564-0.644 0.768-1.281 1.544-1.914 2.322 0.343-0.25 0.681-0.51 1.025-0.758m29.081-31.102c-2.797 4.157-6.661 7.461-10.35 10.857-4.634 4.262-9.063 8.746-13.274 13.427 0.197 5.402-0.644 8.595-2.974 10.269-4.627 3.327-9.104 6.871-13.429 10.59-2.516 3.677-4.917 7.433-7.182 11.269-3.898 5.378-9.145 7.529-13.888 8.546-10.956 8.613-38.559 28.323-55.523 33.049-4.013 2.518-7.928 3.847-11.876 3.06-15.343-3.06-25.657-20.433-21.498-38.289 0.274 0 0.531 1e-3 0.801 1e-3 0.292 0 0.575 1e-3 0.864 1e-3 9.812 0.014 17.818 0.049 24.245 0.106 13.957 0.125 23.533 2.134 26.991 3.3l4.676 1.577s-5.624-4.826-5.31-4.266c-5.301-1.228-15.752-3.35-26.332-3.445-5.567-0.049-12.32-0.083-20.396-0.099-0.377-1e-3 -0.764-2e-3 -1.147-3e-3 -1.167-2e-3 -2.357-4e-3 -3.579-5e-3 0.22-0.624 0.496-1.25 0.801-1.878 0.1-0.435 0.203-0.869 0.322-1.3 4.351-15.754 34.04-33.319 59.276-35.244 5.994-7.857 12.943-11.06 18.788-12.782-3.631-14.058 4.351-30.905 14.381-36.736 2.78-1.617 5.658-2.437 8.554-2.437 2.209 0 4.39 0.475 6.482 1.409 4.498 2.015 7.801 5.788 9.724 9.523 5.129-3.217 10.744-5.715 16.736-5.902 7.393-0.233 15.35 4.016 17.265 11.16 1.301 4.841-0.345 10.081-3.148 14.242" clip-path="url(#clipPath31)" fill="#3eb5f1"/>
   <path transform="matrix(1.3333 0 0 -1.3333 1435.5 1142.1)" d="m0 0c-11.192 8.045-21.552 17.247-30.858 27.412-7.553 6.842-51.183 38.901-65.322 36.316-13.46-2.461-22.957-16.941-21.068-32.76 8.682 0.015 15.856 0.049 21.729 0.101 13.957 0.125 23.534 2.134 26.992 3.3l4.675 1.577s-5.623-4.826-5.309-4.266c-5.301-1.228-15.752-3.35-26.332-3.445-5.777-0.051-12.807-0.086-21.289-0.101 0.156-0.761 0.329-1.523 0.54-2.285 4.084-14.781 33.83-31.692 57.812-32.874 5.627-7.948 13.062-11.791 21.918-13.322-5.025-10.825-0.341-29.864 11.157-36.549 11.307-6.576 20.957 4.725 21.648 12.087 1.443 15.369 8.432 41.41 3.707 44.809" clip-path="url(#clipPath33)" fill="#fff"/>
  </g>
  <g fill="#3eb5f1">
   <path transform="matrix(1.3333 0 0 -1.3333 1475.1 1185)" d="m0 0c-2.547 3.788-5.941 6.885-9.224 9.878l-1.314 1.201c-14.376 13.224-26.701 28.454-36.63 45.275-6.156 8.5-15.508 9.478-21.096 10.062-0.913 0.095-1.746 0.181-2.469 0.288-12.697 1.889-23.195 11.629-32.457 20.221-9.508 8.822-17.721 16.438-26.583 14.673-8.946-1.785-16.653-8.382-20.622-17.651-2.778-6.498-3.5-13.79-2.118-20.864 11.258 0.01 20.255 0.046 27.351 0.109 13.957 0.125 23.533 2.134 26.991 3.3l4.676 1.577s-5.623-4.826-5.31-4.266c-5.3-1.228-15.752-3.35-26.332-3.445-6.963-0.062-15.749-0.098-26.704-0.109 0.055-0.195 0.103-0.391 0.16-0.585 5.415-18.289 45.167-37.118 71.462-34.054 8.841-15.17 23.278-29.725 44.099-44.47 4.964-3.517 12.537-8.219 20.932-8.481 7.836-0.245 15.183 3.963 17.867 10.236 0.257 0.598 0.469 1.219 0.641 1.848 1.26 4.692 0.049 10.256-3.32 15.257" clip-path="url(#clipPath35)"/>
   <path transform="matrix(1.3333 0 0 -1.3333 1478.2 1182.9)" d="m0 0c-2.739 4.073-6.261 7.285-9.664 10.389l-1.308 1.194c-14.176 13.041-26.325 28.057-36.107 44.63l-0.146 0.223c-6.899 9.525-17.436 10.626-23.14 11.222-0.851 0.088-1.628 0.167-2.304 0.268-11.825 1.759-21.979 11.178-30.946 19.495-9.071 8.417-16.905 15.685-25.914 15.685-1.055 0-2.115-0.104-3.152-0.31-9.86-1.968-18.336-9.189-22.673-19.317-2.932-6.858-3.742-14.523-2.392-21.98 1.989 1e-3 3.914 3e-3 5.77 5e-3 -1.418 6.685-0.791 13.603 1.834 19.745 3.601 8.408 10.543 14.385 18.57 15.986 0.673 0.134 1.359 0.203 2.043 0.203 6.784 0 13.862-6.568 22.065-14.18 9.563-8.869 20.401-18.922 33.962-20.94 0.749-0.111 1.609-0.202 2.591-0.303 5.423-0.567 13.603-1.422 19.019-8.802 10.054-17.007 22.53-32.416 37.089-45.809l1.317-1.203c3.158-2.879 6.423-5.856 8.783-9.367 2.911-4.321 3.98-9.037 2.936-12.926-0.141-0.519-0.314-1.016-0.513-1.48-2.21-5.165-8.47-8.739-15.173-8.518-7.637 0.238-14.719 4.657-19.381 7.961-20.495 14.514-34.654 28.771-43.288 43.585l-0.935 1.603-1.842-0.215c-1.77-0.206-3.655-0.311-5.602-0.311-25.255 0-57.931 16.775-62.738 32.137-1.892-3e-3 -3.86-4e-3 -5.891-6e-3 0.119-0.463 0.242-0.926 0.379-1.387 5.705-19.268 42.918-36.413 68.25-36.413 1.508 0 2.985 0.057 4.415 0.169 9.113-14.961 23.519-29.302 43.975-43.789 5.26-3.726 13.315-8.715 22.481-9 0.248-8e-3 0.533-0.027 0.74-0.012 8.794 0 16.76 4.809 19.822 11.963 0.3 0.701 0.559 1.448 0.773 2.231 1.474 5.486 0.122 11.892-3.705 17.574" clip-path="url(#clipPath37)"/>
   <path transform="matrix(1.3333 0 0 -1.3333 1526.7 1177)" d="m0 0c-1.505 5.2-5.862 9.805-11.948 12.632-4.604 2.141-9.606 3.131-14.442 4.09l-1.931 0.385c-16.11 3.267-31.949 8.399-47.085 15.253l-0.349 0.156c-1.433 0.636-3.215 1.426-5.001 3.912-2.899 4.027-7.799 8.962-11.699 10.272-28.098 9.441-44.515 23.498-50.033 32.669-7.976 13.25-11.697 14.349-19.852 16.752l-0.533 0.159c-2.71 0.802-5.898 1.073-9.753 0.828-8.842-0.561-19.331-3.767-28.586-6.597-4.733-1.45-9.208-2.817-12.792-3.613-13.939-3.088-37.627-9.068-60.538-14.848-22.888-5.778-46.557-11.749-60.453-14.83-0.367-0.081-0.712-0.201-1.046-0.339 3.782 0.151 7.491 0.206 11.036 0.206 1.549 0 3.026-7e-3 4.419-0.014 2.059-0.01 3.928-0.02 5.564-3e-3 8.423 0.088 19.485 0.128 34.812 0.128 12.773 0 26.789-0.028 40.854-0.056 14.159-0.03 28.366-0.058 41.401-0.058 14.461 0 25.6 0.037 34.052 0.112 13.957 0.125 23.533 2.134 26.991 3.3l4.676 1.577s-5.623-4.826-5.31-4.266c-5.301-1.228-15.752-3.35-26.332-3.445-8.461-0.076-19.607-0.113-34.077-0.113-13.036 0-27.246 0.029-41.406 0.058-14.063 0.028-28.077 0.057-40.849 0.057-15.316 0-26.369-0.041-34.783-0.128-1.649-0.016-3.531-7e-3 -5.607 2e-3 -1.388 7e-3 -2.861 0.015-4.405 0.015-4.589 0-9.45-0.086-14.391-0.367-4.354-6.956-2.911-22.739-1.968-32.993 0.148-1.636 0.281-3.081 0.366-4.258 0.269-3.732 5.532-10.472 12.519-17.186 23.208 2.492 46.471 3.731 69.76 4.374 27.996 18.79 45.253 28.974 71.283 34.706 16.083-15.553 42.48-31.924 66.054-34.108 17.494-17.408 46.401-27.693 85.93-30.572 3.6-0.26 6.748-0.301 9.63-0.116 5.981 0.377 10.932 1.711 15.144 4.08 7.128 4.008 13.292 13.144 10.678 22.187" clip-path="url(#clipPath39)"/>
  </g>
  <path transform="matrix(1.3333 0 0 -1.3333 1476 1205.7)" d="m0 0c1.299 4.843-0.349 10.08-3.147 14.241-2.8 4.156-6.662 7.463-10.351 10.858-2.841 2.614-5.608 5.311-8.296 8.089-10.947 11.311-20.56 23.913-28.563 37.467-6.714 9.261-17.437 8.975-22.675 9.754-25.758 3.829-41.878 38.238-58.614 34.902-5.416-1.082-10.208-3.95-13.957-7.993 3.919 4.876 9.223 8.367 15.328 9.583 16.733 3.336 32.855-31.07 58.611-34.902 5.241-0.777 15.963-0.492 22.675-9.753 9.967-16.88 22.431-32.286 36.859-45.555 3.69-3.396 7.553-6.7 10.351-10.857 2.802-4.16 4.448-9.4 3.147-14.241-0.615-2.3-1.864-4.296-3.512-5.942 0.966 1.295 1.713 2.744 2.144 4.349" clip-path="url(#clipPath41)" fill="#fff"/>
  <path transform="matrix(1.3333 0 0 -1.3333 1524.8 1177.5)" d="m0 0c-1.544 5.336-6.11 9.361-11.148 11.701-5.042 2.343-10.599 3.264-16.043 4.367-16.314 3.311-32.243 8.488-47.403 15.357-1.469 0.663-3.757 1.514-5.942 4.55-3.067 4.261-7.713 8.64-10.97 9.734-29.643 9.961-45.678 24.75-50.83 33.307-7.851 13.046-11.248 13.807-19.538 16.258-13.047 3.858-37.105-6.464-50.389-9.406-26.093-5.784-85.123-21.384-115.34-28.397 1.357 0.016 2.703 0.027 4.02 0.027 1.549 0 3.026-7e-3 4.419-0.014 2.059-0.01 3.928-0.02 5.563-3e-3 8.424 0.088 19.486 0.128 34.813 0.128 12.772 0 26.789-0.028 40.853-0.056 14.16-0.03 28.367-0.058 41.402-0.058 14.461 0 25.599 0.037 34.052 0.112 13.957 0.125 23.533 2.134 26.991 3.3l4.676 1.577s-5.623-4.826-5.31-4.266c-5.301-1.228-15.752-3.35-26.332-3.445-8.461-0.076-19.607-0.113-34.077-0.113-13.036 0-27.246 0.029-41.406 0.058-14.063 0.028-28.078 0.057-40.849 0.057-15.316 0-26.369-0.041-34.783-0.128-1.649-0.016-3.532-7e-3 -5.607 2e-3 -1.388 7e-3 -2.861 0.015-4.405 0.015-4.009 0-8.228-0.068-12.523-0.272-5.657-6.65-2.603-28.799-1.997-37.24 0.24-3.32 5.816-10.227 13.074-17.083 21.617 2.254 43.282 3.445 64.97 4.089 28.964 19.499 46.498 30.094 72.925 36.047 0 0-2.136 3.204-3.858 6.984 3.071-4.273 5.884-7.067 6.106-7.285 16.909-16.314 43.397-31.794 65.592-33.647 21.039-21.268 55.276-28.333 85.372-30.521 8.177-0.596 16.795-0.24 23.941 3.778 7.146 4.019 12.259 12.609 9.982 20.486" clip-path="url(#clipPath43)" fill="#fff"/>
  <g fill="#3eb5f1">
   <path transform="matrix(1.3333 0 0 -1.3333 1207.6 1104.6)" d="m0 0c-14.063 0.028-28.077 0.058-40.849 0.058-15.316 0-26.369-0.041-34.783-0.128-1.648-0.017-3.531-8e-3 -5.606 2e-3 -1.389 6e-3 -2.862 0.014-4.406 0.014-14.882 0-32.624-0.882-46.663-6.573-0.235-3.166 0.28-6.427 0.376-9.802 0.364-12.598 5.025-25.539 13.298-35.676-4.49 17.169 6.731 54.178 64.522 49.028 35.916-3.198 62.735-0.512 75.542 2.157-3.472 0.299-6.944 0.599-10.415 0.899-3.662 6e-3 -7.34 0.014-11.016 0.021m60.382 31.19c4.338 6.527 7.258 18.598 7.258 18.598s-7.515-6.483-17.824-9.436c2.411 1.693 4.552 4.286 4.552 4.286s-10.789-3.424-27.008-7.14c-34.277-7.853-140.39-4.279-158.13-38.424-0.42-0.81-0.731-1.628-0.967-2.45 14.208 5.306 31.504 6.156 46.094 6.156 1.549 0 3.027-7e-3 4.419-0.013 2.059-0.011 3.928-0.021 5.564-3e-3 8.424 0.088 19.485 0.128 34.812 0.128 12.773 0 26.789-0.029 40.854-0.057 7.226-0.015 14.463-0.029 21.552-0.04 36.311 9.853 43.881 29.753 44.058 34.724 0 0-2.157-3.776-5.233-6.329" clip-path="url(#clipPath45)"/>
   <path transform="matrix(1.3333 0 0 -1.3333 1372.9 1155.5)" d="m0 0c-10.934 8.72-38.646 7.217-72.11 38.186-3.278-5e-3 -6.758-8e-3 -10.459-8e-3 -1.141 0-2.302 0-3.46 1e-3 -12.909-13.999-41.456-20.052-51.111-31.501-4.18-4.96-4.313-11.582-2.476-18.823 2.243 0.057 4.487 0.103 6.73 0.15 2.949 10.196 12.146 22.923 22.734 28.45-3.246-1.951-10.719-11.282-11.718-13.107 16.122 9.923 29.814 17.518 47.927 21.598 0 0-1.363 1.981-3.085 5.761 3.073-4.275 4.943-5.756 5.168-5.973 16.91-16.316 44.982-31.521 67.177-33.373 21.037-21.268 53.692-28.606 83.787-30.796 8.177-0.594 16.794-0.242 23.94 3.778 4.885 2.748 8.815 7.632 10.09 12.963-36.958-19.652-91.986 5.83-113.13 22.694m-75.087 41.017c-1.861 1.812-3.737 3.721-5.629 5.746-0.712-2.057-1.744-3.962-3.016-5.75h1.163c2.601 0 5.091 1e-3 7.482 4e-3" clip-path="url(#clipPath47)"/>
   <path transform="matrix(1.3333 0 0 -1.3333 1498.4 1177.9)" d="m0 0c4.876 0.314 9.622 5.979 10.444 9.647 0.534 2.394-0.694 3.363-1.248 3.67-6.914 3.823-27.743 7.294-28.625 7.438l-2.33 0.388 0.511-2.308c0.14-0.63 3.605-15.52 19.511-18.722 0.564-0.112 1.147-0.152 1.735-0.113z" clip-path="url(#clipPath49)"/>
   <path transform="matrix(1.3333 0 0 -1.3333 1509.1 1161.8)" d="m0 0c2.445-1.497-4.475-11.232-10.289-9.792-14.92 3.697-17.473 18.295-17.473 18.295s21.182-4.473 27.762-8.503" clip-path="url(#clipPath51)"/>
  </g>
  <g>
   <path transform="matrix(1.3333 0 0 -1.3333 1474 1151.7)" d="m0 0c3.086-5.042 8.453-10.63 17.596-12.897 2.174-0.537 4.476 0.196 6.541 1.531-1.973-2.556-5.264-4.977-8.244-4.238-11.143 2.761-14.862 12.057-15.893 15.604" clip-path="url(#clipPath53)" fill="#fff"/>
   <path transform="matrix(1.3333 0 0 -1.3333 472.05 1392.7)" d="m0 0c-1.147-0.974-2.294-1.94-3.44-2.897-0.579-0.483-1.158-0.957-1.737-1.437-0.516-2.505-1.034-4.758-1.553-6.782 1.804 1.47 3.615 2.96 5.434 4.474 0.435 2.041 0.867 4.248 1.296 6.642" clip-path="url(#clipPath55)" fill="#fff"/>
   <path transform="matrix(1.3333 0 0 -1.3333 1027.2 1495.2)" d="m0 0c5.025 0.268 9.924 0.861 14.246 1.385 10.943 1.327 16.538 11.187 16.409 20.241-0.135 9.508-5.979 16.183-14.888 17.006-18.163 1.679-22.749 3.754-37.764 17.077-2.257 2.003-4.091 3.674-5.631 5.077-8.382 7.638-8.566 7.731-19.78 9.833-1.282 0.238-2.715 0.508-4.332 0.82-1.498 0.29-2.896 0.552-4.213 0.797-14.068 2.631-18.808 3.518-40.956 19.952-14.278 10.591-22.662 14.345-31.421 13.878-5.738-0.305-18.377-2.275-26.48-1.863-17.701 0.901-19.373-31.597-18.632-48.182 0.373-8.361 3.45-13.994 8.442-15.455 4.157-1.215 14.512-3.701 27.622-6.848 31.835-7.64 79.945-19.188 96.017-26.116 17.936-7.735 31.524-8.125 41.358-7.602z" clip-path="url(#clipPath57)" fill="#3eb5f1"/>
   <path transform="matrix(1.3333 0 0 -1.3333 819.88 1358.1)" d="m0 0c-3.095 0-5.697-1.147-7.957-3.51-9.285-9.709-8.888-35.527-8.545-43.209 0.344-7.718 3.05-12.878 7.424-14.158 4.115-1.203 14.419-3.677 27.464-6.809 31.968-7.671 80.142-19.232 96.338-26.214 12.091-5.214 23.287-7.643 35.232-7.643 1.743 0 3.538 0.051 5.49 0.154 4.973 0.265 9.84 0.855 14.134 1.374 10.133 1.23 15.303 10.396 15.183 18.817-0.125 8.733-5.464 14.863-13.603 15.615-18.369 1.697-23.416 3.979-38.574 17.428-2.262 2.009-4.1 3.683-5.644 5.09-8.165 7.439-8.165 7.439-19.087 9.488-1.283 0.238-2.719 0.508-4.339 0.821-1.495 0.288-2.89 0.551-4.204 0.795-14.31 2.676-19.13 3.577-41.541 20.206-14.17 10.513-22.188 14.029-30.501 13.603-1.848-0.099-4.427-0.373-7.412-0.692-6.002-0.637-13.687-1.453-19.215-1.172-0.217 0.011-0.432 0.016-0.643 0.016m149.96-104.38c-12.176 0-24.067 2.575-36.354 7.873-15.973 6.887-64.003 18.413-95.786 26.04-13.174 3.162-23.508 5.644-27.69 6.866-5.61 1.642-9.058 7.748-9.46 16.752-0.355 7.966-0.733 34.774 9.329 45.295 2.97 3.106 6.567 4.582 10.792 4.365 5.346-0.267 12.873 0.533 18.771 1.162 3.025 0.322 5.638 0.599 7.561 0.702 9.049 0.5 17.573-3.199 32.34-14.156 21.887-16.239 26.545-17.11 40.373-19.696 1.318-0.246 2.719-0.509 4.221-0.799 1.614-0.311 3.043-0.581 4.322-0.818 11.497-2.155 11.88-2.346 20.476-10.179 1.536-1.4 3.366-3.067 5.617-5.065 14.866-13.192 19.011-15.068 36.954-16.726 9.679-0.894 16.028-8.115 16.175-18.396 0.137-9.688-5.882-20.241-17.656-21.669-4.358-0.528-9.276-1.123-14.341-1.393-2.005-0.106-3.851-0.158-5.644-0.158" clip-path="url(#clipPath59)" fill="#3eb5f1"/>
   <path transform="matrix(1.3333 0 0 -1.3333 830.33 1362.5)" d="m0 0c9.779 0.365 14.887 5.283 21.357 4.937 7.994-0.429 16.11-4.363 28.467-13.532 24.502-18.179 28.008-17.589 45.818-21.033 17.934-3.468 13.416-1.539 28.986-15.357 15.572-13.82 20.623-15.804 38.677-17.472 19.128-1.767 17.154-31.803-1.567-34.073-15.869-1.924-31.911-3.765-54.784 6.096-22.871 9.863-109.71 28.901-123.82 33.032s-9.296 56.423 16.868 57.402" clip-path="url(#clipPath61)" fill="#fff"/>
  </g>
  <g fill="#3eb5f1">
   <path transform="matrix(1.3333 0 0 -1.3333 824.18 1363.5)" d="m0 0c4.37-10.806 23.112-7.095 34.084-12.027 20.416-9.178 47.12-13.541 52.604-15.761 5.073-2.055 9.385-5.941 13.5-9.443 7.576-6.451 16.427-16.161 26.8-18.888 8.914-2.343 20.551-2.205 26.881-9.618 4.596-5.382 2.252-12.539 11.695-14.667 4.901-1.105 13.686 0.92 14.009 7.718 1.863-9.28-2.74-19.984-14.042-21.355-15.869-1.924-35.833-3-53.961 4.36-23.077 9.37-109.71 28.901-123.82 33.031-13.241 3.876-9.819 50.128 12.252 56.65" clip-path="url(#clipPath63)"/>
   <path transform="matrix(1.3333 0 0 -1.3333 1020.8 1456.1)" d="m0 0c0.659 4e-3 1.267 0.281 1.81 0.832 3.789 3.851 9.48 8.201 21.173 7.438-5.51 2.377-16.658 4.175-21.058 4.097-1.127-0.019-2.921-0.174-3.592-0.479-3.334-1.518-3.455-5.075-2.642-7.551 0.83-2.528 2.651-4.348 4.308-4.337z" clip-path="url(#clipPath65)"/>
   <path transform="matrix(1.3333 0 0 -1.3333 1019.3 1442.2)" d="m0 0c3.447 1.503 13.009-0.102 19.811-1.509-3.806 0.152-11.034-0.217-17.563-7.084-2.891-3.04-7.945 6.111-2.248 8.593" clip-path="url(#clipPath67)"/>
   <path transform="matrix(1.3333 0 0 -1.3333 990.95 1498.2)" d="m0 0c5.346 0.285 10.556 0.916 15.151 1.474 11.584 1.404 17.506 11.843 17.369 21.429-0.109 7.641-4.298 16.938-15.748 17.995-19.352 1.789-24.24 3.998-40.234 18.193l-0.604 0.536c-12.674 11.247-12.915 11.462-22.072 13.784-2.248 0.569-5.046 1.278-8.779 2.358l-1.509 0.436c-7.262 2.098-11.565 3.341-16.228 5.399-6.336 2.798-12.793 4.06-28.782 14.064-6.178 3.865-11.797 9.885-16.129 12.116-8.66 4.462-14.339 5.954-19.889 5.659-5.329-0.284-10.315-2.263-17.214-5.003l-3.029-1.198c-17.513-6.869-27.504-30.128-26.72-47.738 0.395-8.848 3.642-14.808 8.908-16.349 4.422-1.294 15.438-3.938 29.385-7.285 33.873-8.13 85.061-20.415 102.17-27.79 19.064-8.221 33.505-8.637 43.954-8.08z" clip-path="url(#clipPath69)"/>
   <path transform="matrix(1.3333 0 0 -1.3333 809.46 1348.8)" d="m0 0c-0.424 0-0.846-0.011-1.267-0.033-5.097-0.273-9.991-2.215-16.765-4.904l-3.032-1.201c-16.933-6.64-26.588-29.233-25.825-46.356 0.366-8.206 3.242-13.692 7.89-15.052 4.413-1.291 15.403-3.929 29.317-7.267 33.932-8.144 85.183-20.445 102.4-27.867 12.687-5.471 24.947-8.131 37.48-8.131 1.853 0 3.762 0.054 5.838 0.165 5.32 0.284 10.494 0.912 15.058 1.465 10.754 1.304 16.25 11.049 16.122 20.002-0.1 7.053-3.947 15.633-14.461 16.605-19.759 1.825-24.746 4.078-41.045 18.543l-0.604 0.537c-12.657 11.232-12.657 11.232-21.479 13.47-2.254 0.571-5.061 1.282-8.824 2.37l-1.509 0.436c-7.269 2.1-11.657 3.367-16.407 5.464-1.468 0.649-2.981 1.228-4.582 1.84-5.374 2.055-12.061 4.612-24.379 12.319-3.116 1.949-6.12 4.454-8.769 6.664-2.671 2.227-5.193 4.329-7.258 5.394-7.533 3.882-12.885 5.537-17.897 5.537m130.2-113.65c-12.926 0-25.553 2.736-38.602 8.363-16.991 7.325-68.099 19.592-101.92 27.709-13.97 3.352-24.99 5.997-29.47 7.307-5.885 1.722-9.503 8.154-9.926 17.646-0.806 18.098 9.524 42.024 27.618 49.121l3.025 1.197c7.024 2.788 12.099 4.804 17.66 5.1 5.929 0.323 11.965-1.358 20.614-5.815 2.342-1.207 4.981-3.407 7.774-5.736 2.706-2.257 5.505-4.591 8.458-6.438 12.084-7.561 18.629-10.064 23.887-12.075 1.636-0.626 3.181-1.216 4.715-1.893 4.575-2.021 8.894-3.268 16.048-5.334l1.511-0.438c3.717-1.074 6.498-1.779 8.733-2.344 9.491-2.408 9.986-2.847 22.662-14.096l0.606-0.539c15.688-13.923 20.478-16.09 39.425-17.841 12.386-1.144 16.917-11.158 17.033-19.386 0.147-10.219-6.2-21.352-18.614-22.857-4.609-0.559-9.834-1.193-15.247-1.482-2.128-0.113-4.087-0.169-5.991-0.169" clip-path="url(#clipPath71)"/>
  </g>
  <path transform="matrix(1.3333 0 0 -1.3333 781.46 1357.2)" d="m0 0c20.203 7.926 23.393 10.936 54.291-8.397 28.738-17.982 28.795-17.724 47.464-23.123 18.668-5.4 14.272-1.637 30.839-16.339 16.565-14.703 21.939-16.814 41.147-18.588 20.352-1.88 18.251-33.836-1.666-36.25-16.884-2.048-33.951-4.006-58.285 6.486s-116.72 30.747-131.74 35.143c-15.019 4.394-7.986 50.897 17.945 61.068" clip-path="url(#clipPath73)" fill="#fff"/>
  <g fill="#3eb5f1">
   <path transform="matrix(1.3333 0 0 -1.3333 824.04 1389)" d="m0 0c13.637-7.066 34.145-9.667 48.65-13.502 12.578-3.325 20.778-25.157 43.993-28.892 34.016-5.472 22.501-26.886 46.61-23.977 7.651 0.923 12.66 6.218 14.791 12.485 2.376-9.982-3.363-22.083-15.66-23.574-16.883-2.047-31.882-3.343-56.216 7.149-15.486 6.678-58.848 15.269-91.975 23.249 0.047 3.929 9.473 43.131 9.807 47.062" clip-path="url(#clipPath75)"/>
   <path transform="matrix(1.3333 0 0 -1.3333 978.55 1456.8)" d="m0 0c0.838 8e-3 1.617 0.289 2.324 0.843 4.935 3.876 12.299 8.261 27.106 7.555-6.91 2.353-20.991 4.096-26.575 3.996-1.429-0.026-3.71-0.19-4.571-0.498-4.28-1.538-4.552-5.099-3.603-7.575 0.967-2.528 3.216-4.34 5.319-4.321" clip-path="url(#clipPath77)"/>
   <path transform="matrix(1.3333 0 0 -1.3333 938.35 1505.6)" d="m0 0c5.346 0.284 10.556 0.916 15.152 1.473 11.584 1.405 17.505 11.843 17.367 21.429-0.108 7.642-4.297 16.938-15.746 17.995-19.353 1.79-24.241 3.999-40.235 18.194l-0.605 0.536c-12.673 11.247-12.915 11.462-22.07 13.784-2.249 0.568-5.047 1.277-8.78 2.358-3.948 1.141-6.825 1.816-9.131 2.38-15.026 3.681-33.621 16.515-33.555 16.481 0 0-17.694 15.609-34.219 13.528-3.974-0.5-7.002 1.714-11.714 0.757-2.241-0.453-4.649-0.941-7.296-1.415-21.909-3.915-32.921-24.846-33.882-42.637-0.614-11.372 3-19.892 9.206-21.708 4.421-1.295 15.437-3.938 29.384-7.286 33.874-8.13 85.062-20.415 102.17-27.789 19.064-8.221 33.505-8.637 43.955-8.08z" clip-path="url(#clipPath79)"/>
   <path transform="matrix(1.3333 0 0 -1.3333 750.19 1361.9)" d="m0 0c-0.724 0-1.421-0.069-2.132-0.214l-0.148-0.03c-2.25-0.455-4.576-0.925-7.181-1.392-21.15-3.779-31.785-24.067-32.717-41.317-0.576-10.691 2.638-18.648 8.189-20.272 4.375-1.281 15.329-3.911 29.198-7.239l0.119-0.029c33.932-8.144 85.183-20.445 102.4-27.865 12.687-5.472 24.946-8.131 37.48-8.131 1.853 0 3.762 0.053 5.837 0.164 5.288 0.281 10.461 0.908 15.026 1.461 10.786 1.308 16.283 11.053 16.154 20.006-0.1 7.052-3.947 15.632-14.459 16.604-19.762 1.826-24.748 4.08-41.046 18.545l-0.604 0.535c-12.657 11.234-12.657 11.234-21.479 13.471-2.115 0.535-5.015 1.267-8.824 2.37-3.441 0.995-6.085 1.638-8.21 2.154l-0.865 0.211c-6.349 1.556-14.006 4.838-22.76 9.756-3.401 1.91-6.275 3.689-8.087 4.844-1.825 1.164-2.795 1.782-3.298 2.208l-0.011-0.013c-0.151 0.134-15.34 13.364-30.174 13.364-0.996 0-1.982-0.06-2.929-0.179-0.453-0.057-0.919-0.086-1.388-0.086-1.472 0-2.825 0.278-4.134 0.547-1.32 0.271-2.567 0.527-3.955 0.527m135.21-109.32c-12.927 0-25.554 2.735-38.602 8.362-16.991 7.324-68.1 19.591-101.92 27.708l-0.138 0.033c-13.906 3.338-24.891 5.975-29.333 7.276-6.86 2.007-10.873 11.091-10.222 23.144 0.989 18.331 12.38 39.905 35.048 43.956 2.573 0.46 4.884 0.928 7.118 1.379l0.147 0.03c0.897 0.182 1.779 0.271 2.695 0.271 1.676 0 3.125-0.298 4.525-0.585 1.592-0.327 3.127-0.611 4.598-0.426 1.064 0.134 2.169 0.202 3.283 0.202 15.573 0 30.737-12.928 31.988-14.019 1.031-0.708 18.775-12.733 33.016-16.221l0.861-0.21c2.151-0.523 4.828-1.175 8.327-2.186 3.763-1.089 6.636-1.815 8.733-2.345 9.491-2.407 9.986-2.847 22.664-14.098l0.604-0.536c15.688-13.923 20.478-16.091 39.425-17.843 12.386-1.143 16.916-11.158 17.033-19.385 0.147-10.219-6.2-21.352-18.613-22.858-4.643-0.562-9.867-1.194-15.248-1.48-2.128-0.114-4.087-0.169-5.99-0.169" clip-path="url(#clipPath81)"/>
  </g>
  <path transform="matrix(1.3333 0 0 -1.3333 737.96 1363.2)" d="m0 0c21.364 3.817 27.054 7.834 54.487-12.084 27.433-19.917 21.778-15.023 40.446-20.423 18.669-5.399 14.273-1.638 30.839-16.339 16.566-14.702 21.939-16.813 41.147-18.588 20.352-1.879 18.251-33.836-1.666-36.251-16.883-2.046-33.951-4.004-58.284 6.488-24.334 10.492-116.72 30.747-131.74 35.141-15.018 4.396-10.263 55.795 24.767 62.056" clip-path="url(#clipPath83)" fill="#fff"/>
  <g fill="#3eb5f1">
   <path transform="matrix(1.3333 0 0 -1.3333 726.89 1443.9)" d="m0 0c0.721 3.789 25.266 21.152 26.876 24.529 18.022-4.974 38.099-3.698 44.46-10.02 12.814-12.737 28.762-15.506 48.284-19.07 13.182-2.406 16.241-14.482 24.237-19.506 11.272-7.082 22.776-6.107 32.82-3.192 6.057 1.758 7.89 4.815 10.486 9.561 3.432-10.165-2.523-22.154-15.501-23.727-16.883-2.048-32-4.316-56.334 6.176-19.689 8.489-83.984 21.904-115.75 29.603-0.034 1.854 0.052 3.724 0.418 5.646" clip-path="url(#clipPath85)"/>
   <path transform="matrix(1.3333 0 0 -1.3333 871.88 1506.4)" d="m0 0c1.254 0.066 2.518 0.148 3.801 0.246 8.484 0.65 14.777 3.632 18.198 8.628 3.38 4.933 3.861 11.518 1.429 19.568-3.826 12.677-18.686 13.674-29.536 14.405-4.76 0.319-9.256 0.622-11.574 1.796-7.578 3.836-16.06 9.923-21.608 15.509-2.576 2.593-7.093 3.362-12.812 4.333-7.358 1.251-25.181 3.358-35.601 10.084-31.22-1.529-68.196 6.015-121.74 3.164-42.151-2.244-91.767-4.895-95.316-25.229-1.316-7.545-3.334-26.48 6.356-39.308 5.428-7.186 13.667-11.403 24.483-12.532 4.392-0.459 9.617-0.532 15.531-0.217 20.065 1.067 46.316 6.487 69.476 11.266 17.89 3.693 34.787 7.181 46.939 8.345 1.185 0.113 2.422 0.205 3.709 0.274 15.55 0.827 36.469-1.862 60.493-7.777 4.433-1.091 8.747-2.27 13.314-3.517 18.788-5.131 38.216-10.434 64.457-9.038" clip-path="url(#clipPath87)"/>
   <path transform="matrix(1.3333 0 0 -1.3333 695.17 1477.2)" d="m0 0c14.882 0 33.934-2.754 55.097-7.965 4.416-1.086 8.703-2.257 13.241-3.496l0.108-0.029c16.589-4.531 33.742-9.215 55.628-9.215 2.758 0 5.577 0.076 8.38 0.225 1.243 0.066 2.496 0.147 3.769 0.244 8.042 0.616 13.967 3.388 17.136 8.015 3.126 4.563 3.543 10.739 1.241 18.358-3.542 11.735-17.831 12.697-28.266 13.399-4.915 0.33-9.549 0.641-12.127 1.946-7.703 3.9-16.328 10.092-21.974 15.776-2.256 2.271-6.575 3.006-12.043 3.934-0.878 0.15-1.906 0.312-3.054 0.492-8.728 1.372-23.255 3.654-32.691 9.552-2.724-0.125-5.528-0.186-8.554-0.186-10.901 0-22.771 0.831-35.339 1.712-15.447 1.082-32.955 2.308-52.765 2.308-8.383 0-16.437-0.212-24.625-0.647-40.381-2.151-90.638-4.826-93.995-24.059-1.284-7.363-3.262-25.826 6.091-38.209 5.182-6.861 13.089-10.89 23.499-11.976 4.299-0.45 9.498-0.521 15.309-0.212 19.939 1.059 46.11 6.461 69.2 11.225 17.987 3.713 34.916 7.208 47.155 8.381 1.206 0.115 2.474 0.209 3.768 0.279 1.853 0.098 3.807 0.148 5.811 0.148m124.07-23.54c-22.266 0-39.606 4.736-56.375 9.315l-0.107 0.03c-4.521 1.234-8.791 2.4-13.173 3.478-23.737 5.844-44.765 8.551-60.078 7.738-1.255-0.068-2.483-0.159-3.65-0.27-12.086-1.157-28.942-4.638-46.787-8.321-23.253-4.799-49.535-10.223-69.687-11.293-5.96-0.319-11.305-0.243-15.754 0.222-11.223 1.171-19.792 5.575-25.467 13.087-10.023 13.271-7.969 32.678-6.621 40.406 3.745 21.456 53.095 24.083 96.637 26.401 8.238 0.438 16.342 0.652 24.775 0.652 19.909 0 37.47-1.23 52.963-2.315 12.517-0.877 24.339-1.706 35.141-1.706 3.147 0 6.047 0.067 8.866 0.206l0.455 0.021 0.383-0.247c8.917-5.756 23.921-8.113 31.981-9.38 1.161-0.182 2.201-0.346 3.09-0.497 5.967-1.014 10.681-1.815 13.579-4.731 5.449-5.486 13.787-11.471 21.243-15.244 2.062-1.045 6.62-1.351 11.028-1.647 11.269-0.759 26.69-1.797 30.798-15.409 2.563-8.481 2.019-15.473-1.617-20.778-3.67-5.361-10.329-8.556-19.259-9.24-1.294-0.099-2.569-0.182-3.834-0.249-2.852-0.152-5.722-0.229-8.53-0.229" clip-path="url(#clipPath89)"/>
  </g>
  <path transform="matrix(1.3333 0 0 -1.3333 467.63 1436.8)" d="m0 0c-2.562-14.676-3.516-46.539 29.433-49.979 32.949-3.441 98.834 16.256 131.63 19.395 14.113 1.351 35.379-0.314 64.734-7.542 23.77-5.853 46.745-14.894 81.069-12.267 14.422 1.104 23.315 9.273 18.221 26.145-5.14 17.02-32.09 11.077-40.303 15.235-8.213 4.159-16.742 10.497-22.019 15.81-5.279 5.313-28.175 2.562-47.337 15.994-17.948 12.58-208.84 14.92-215.43-22.791" clip-path="url(#clipPath91)" fill="#fff"/>
  <g fill="#3eb5f1">
   <path transform="matrix(1.3333 0 0 -1.3333 467.63 1436.8)" d="m0 0c1.209 6.927 8.652 12.497 20.085 16.906 7.896-14.269 19.395-18.006 37.858-18.261 15.404-0.213 34.851-7.947 50.168-6.652 20.989 1.775 45.9 9.435 66 2.793 27.666-9.141 39.718-4.728 51.75-10.586 14.577-7.096 24.875-13.376 41.141-17.74 19.258-5.167 46.589-7.504 57.486 6.28 2.903-11.388-3.409-20.923-17.294-21.859-30.461-2.056-57.515 6.717-81.286 12.57-29.354 7.228-50.621 8.893-64.734 7.542-32.795-3.139-98.68-22.836-131.63-19.395-32.949 3.44-32.107 33.726-29.545 48.402" clip-path="url(#clipPath93)"/>
   <path transform="matrix(1.3333 0 0 -1.3333 791.43 1349.3)" d="m0 0c-7.102-1.298-17.319-3.363-27.832-5.52-2.263-0.463-3.996-0.819-4.898-0.998-6.295-1.198-12.689-2.475-18.905-3.716-13.961-2.789-28.399-5.673-41.841-7.719l-6.54-0.995 10.757 6.942-7.657-1.675c-10.031-2.194-20.166-3.165-30.896-4.192l-0.141-0.014c-3.806-0.365-7.742-0.743-11.66-1.181-11.309-1.263-37.532-6.815-58.296-11.365 11.839 3.568 24.034 6.864 35.122 9.494-69.737-10.958-80.61-28.428-80.61-28.428-13.424-51.229 58.629-48.903 142.07-24.615-6.6-0.613-13.221-0.989-19.847-1.128 0.117 0.031 0.244 0.064 0.36 0.093 15.207 3.9 31.142 9.119 41.123 21.236 3.248 3.944 5.944 8.305 8.895 12.475 8.338 11.784 21.139 11.209 24.071 12.721 11.894 6.131 11.572 22.732 29.867 21.038 8.738-0.808 22.362-8.884 22.362-8.884s-7.819 6.827-16.063 9.369c4.86 2.101 12.537 5.814 20.099 8.063-3.084-0.251-6.282-0.601-9.539-1.001" clip-path="url(#clipPath95)"/>
   <path transform="matrix(1.3333 0 0 -1.3333 654.16 954.68)" d="m0 0c-7.379 7.807-7.143 17.512-6.714 35.129 0.239 9.799 0.553 22.757-0.353 39.767-29.577-16.931-48.903-49.928-66.175-83.482-5.339-10.371-10.354-22.835-15.044-36.746 0.614-0.366 1.228-0.731 1.841-1.099-6.537-19.421-12.377-41.541-17.531-64.561l0.296-0.547c0.052-0.08 0.116-0.175 0.188-0.283 1.772-2.656 2.945-5.285 3.517-7.88 1.6 1.044 3.098 2.098 4.473 3.067 4.105 2.893 6.816 4.803 9.931 4.802 0.928 0 1.821-0.177 2.654-0.525 49.595-20.781 92.128-29.054 141.38-36.509 6.849 16.219 13.275 33.398 18.726 51.554-0.136-1.456-0.28-2.877-0.417-4.231-0.122-1.198-0.238-2.344-0.338-3.416l-1.177-12.568 5.228 11.489c10.928 24.016 17.961 47.044 21.112 68.981-17.213 6.238-36.351 12.533-58.001 18.84-24.581 7.162-36.702 10.928-43.593 18.218m-85.572-117.5c-3.012 1e-3 -11.149-8.463-21.672-12.364 2.459 3.972 2.27 7.552 1.388 10.296-14.114-65.736-22.735-136.92-26.09-172.76-1.437-15.357-3.005-27.105-4.632-36.193-0.85-0.722-1.701-1.436-2.551-2.15-4.134-21.691-8.552-26.401-12.062-30.139-0.347-0.37-0.685-0.731-1.017-1.097l-5.645-6.244 7.934 2.814c3.943 1.4 7.686 3.28 11.164 5.608 3.709-14.577 15.078-18.966 34.127-21.664 1.23-0.173 2.493-0.261 3.754-0.261h6e-3c20.53 5e-3 45.196 22.684 73.621 67.584-3.104-0.3-6.257-0.61-9.416-0.963-11.308-1.263-37.531-6.815-58.295-11.364 20.931 6.307 42.982 11.77 58.048 14.191 2.731 0.439 5.538 0.667 8.252 0.887 1.116 0.09 2.222 0.181 3.318 0.285 10.588 16.992 21.69 37.029 33.287 60.09 3.839 7.634 8.167 15.856 12.748 24.561 11.176 21.234 23.835 45.322 35.461 72.137-48.448 7.382-91.685 15.887-141.26 36.66-0.139 0.058-0.295 0.086-0.467 0.086m203.99 112.11-3.456 19.561c-5.095 28.843-12.796 72.43-76.849 72.43h-0.222c-14.93-0.024-27.934-3.227-39.444-8.792 4.529-76.322-15.36-72.489 46.734-90.578 21.332-6.215 40.195-12.391 57.168-18.503 2.7 23.814 0.732 46.305-5.922 67.327 6.131-6.882 11.066-14.724 14.474-23.059z" clip-path="url(#clipPath97)"/>
   <path transform="matrix(1.3333 0 0 -1.3333 540.06 1111.3)" d="m0 0c-3.012 1e-3 -11.148-8.463-21.671-12.364 2.459 3.972 2.27 7.552 1.387 10.296-14.114-65.736-22.735-136.92-26.09-172.76-1.437-15.358-3.004-27.105-4.631-36.193-0.851-0.722-1.702-1.436-2.552-2.15-4.134-21.691-8.551-26.401-12.062-30.14-0.346-0.369-0.685-0.73-1.016-1.096l-5.645-6.244 7.933 2.814c3.944 1.4 7.686 3.28 11.164 5.608 3.709-14.577 15.078-18.966 34.127-21.664 1.23-0.173 2.493-0.261 3.754-0.261h7e-3c20.529 5e-3 45.195 22.684 73.621 67.584-3.105-0.3-6.258-0.61-9.416-0.963-11.309-1.263-37.532-6.815-58.296-11.364 20.931 6.307 42.982 11.77 58.048 14.191 2.731 0.439 5.538 0.667 8.253 0.887 1.115 0.09 2.222 0.181 3.317 0.285 10.588 16.992 21.69 37.029 33.287 60.09 3.839 7.634 8.167 15.856 12.749 24.561 11.175 21.234 23.834 45.321 35.461 72.137-48.449 7.382-91.686 15.887-141.26 36.66-0.138 0.058-0.295 0.086-0.467 0.086m85.572 117.5c-7.379 7.807-7.143 17.512-6.714 35.129 0.239 9.799 0.554 22.757-0.353 39.767-29.577-16.931-48.902-49.928-66.175-83.482-5.339-10.371-10.354-22.835-15.043-36.746 0.613-0.366 1.227-0.732 1.84-1.099-6.537-19.421-12.377-41.541-17.53-64.561l0.296-0.547c0.051-0.08 0.115-0.175 0.188-0.283 1.772-2.656 2.944-5.285 3.516-7.88 1.6 1.044 3.098 2.098 4.473 3.067 4.105 2.893 6.816 4.803 9.931 4.802 0.928 0 1.822-0.177 2.655-0.525 49.594-20.781 92.127-29.054 141.38-36.509 6.848 16.219 13.275 33.398 18.725 51.553-0.135-1.455-0.28-2.876-0.417-4.23-0.121-1.198-0.238-2.344-0.338-3.416l-1.177-12.568 5.229 11.489c10.926 24.014 17.97 47.042 21.122 68.977-17.216 6.24-36.358 12.536-58.012 18.844-24.581 7.162-36.702 10.928-43.593 18.218m118.42-5.395-3.455 19.561c-5.096 28.843-12.797 72.43-76.849 72.43h-0.223c-14.93-0.024-27.934-3.227-39.444-8.792 4.529-76.322-15.36-72.489 46.734-90.578 21.33-6.214 40.19-12.389 57.162-18.501 0.347 3.06 0.627 6.102 0.819 9.119 1.306 20.454-0.936 39.887-6.734 58.206 6.13-6.882 11.065-14.724 14.473-23.059z" clip-path="url(#clipPath99)"/>
   <path transform="matrix(1.3333 0 0 -1.3333 922.61 1464.7)" d="m0 0c1.162 8e-3 2.315 0.38 3.429 1.104 7.151 4.663 16.023 9.107 30.664 7.677-6.602 2.615-20.922 5.223-27.205 5.545-1.672 0.086-4.424 0.101-5.55-0.15-5.881-1.311-7.561-5.363-7.211-8.437 0.375-3.292 2.898-5.76 5.872-5.739z" clip-path="url(#clipPath101)"/>
   <path transform="matrix(1.3333 0 0 -1.3333 855.46 1466.6)" d="m0 0c1.393 0.01 2.808 0.384 4.203 1.113l0.662 0.351c3.418 1.811 13.322 6.428 23.199 5.693l-4.036 2.622c-3.455 1.408-8.491 2.432-14.967 3.048-1.7 0.162-4.255 0.373-6.829 0.356-6.291-0.042-9.677-1.457-10.351-4.324-0.402-1.702 0.236-3.87 1.664-5.661 1.634-2.05 3.987-3.215 6.454-3.198z" clip-path="url(#clipPath103)"/>
  </g>
  <g fill="#fff">
   <path transform="matrix(1.3333 0 0 -1.3333 878.83 1455.4)" d="m0 0c-6.155 1.109-12.658 2.259-18.541 2.354 2.185-0.887 6.041-2.693 9.404-4.917 0 0 3.637 1.754 9.137 2.563" clip-path="url(#clipPath105)"/>
   <path transform="matrix(1.3333 0 0 -1.3333 950.69 1451.1)" d="m0 0c-6.155 1.109-12.654 2.11-18.537 2.206 2.184-0.888 5.515-2.476 8.879-4.698 0 0 4.158 1.682 9.658 2.492" clip-path="url(#clipPath107)"/>
   <path transform="matrix(1.3333 0 0 -1.3333 1000.6 1444.6)" d="m0 0c-6.155 1.109-11.367 1.259-17.25 1.354 2.185-0.887 4.509-1.766 7.873-3.99 0 0 3.773 1.995 9.377 2.636" clip-path="url(#clipPath109)"/>
   <path transform="matrix(1.3333 0 0 -1.3333 1040.2 1443.7)" d="m0 0c-6.155 1.109-9.347 1.07-15.229 1.166 4.146-1.228 7.812-3.083 7.812-3.083s3.125 1.605 7.417 1.917" clip-path="url(#clipPath111)"/>
  </g>
  <g fill="#3eb5f1">
   <path transform="matrix(1.3333 0 0 -1.3333 533.3 471.36)" d="m0 0c12.665-5.911 23.702-11.785 33.28-17.422-0.548 4.642-1.246 9.322-2.093 14.01-7.719 2.409-15.182 3.637-24.173 3.637-2.235 0-4.562-0.075-7.014-0.225m175.11-288.33c2.983 0.332 6.76 0.506 11.158 0.506 5.262 0 9.59-0.249 9.633-0.251l16.54-0.966-15.76 5.111c-0.916 0.297-22.763 7.272-51.55 7.272-5.035 0-9.989-0.218-14.833-0.652 3.674 1.208 7.982 2.36 12.81 3.199l20.077 3.488-20.364 0.732c-1.443 0.052-2.914 0.078-4.373 0.078-15.689 0-32.314-2.997-49.74-8.937 0.014-0.212 0.026-0.433 0.041-0.644 5.819-81.817-16.424-77.373 47.076-95.873 16.112-4.695 30.812-9.365 44.359-14.005 5.573 14.086 9.642 26.997 12.177 38.621 0.512 2.346-5.068 22.186-5.289 24.208 1.006-1.152 6.372-7.291 8.149-10.59 1.637 12.705 0.876 23.143-2.427 30.899-1.472 3.457-5.954 11.436-17.684 17.804m-84.463-74.163c-7.38 7.807-7.144 17.512-6.714 35.129 0.27 11.075 0.634 26.193-0.776 46.63-14.085-5.254-28.674-12.386-43.7-21.391-29.991-17.971-61.108-42.932-92.526-74.18-38.262 108.03 35.671 219.34 74.583 276.54 10.314 15.161 14.563 40.856 12.921 69.26l-3.329 4.04 3.145-1.194c-0.075 1.056-0.157 2.115-0.248 3.177-10.233 6.21-22.287 12.757-36.399 19.344l-20.206 9.431 22.257 1.365c2.589 0.158 4.996 0.236 7.361 0.236 0.666 0 1.323-7e-3 1.975-0.02-13.205 4.773-30.115 8.922-54.643 12.595l-26.21 3.925 25.279 7.074c-4.229 0.316-8.613 0.502-13.074 0.502-11.668 0-22.39-1.267-31.87-3.767-0.947-0.249-1.952-0.51-3.01-0.784-9.581-2.48-23.446-6.069-36.288-12.926 0.171 2.183 0.293 4.355 0.283 6.514 13.992 6.907 28.494 10.285 37.57 12.678 10.945 2.886 22.387 3.954 33.315 3.954 31.062 0 58.022-8.62 58.022-8.62s-5.482 0.925-13.941 0.925c-7.848 0-18.258-0.796-29.236-3.868 38.191-5.719 58.56-12.73 74.793-21.269-13.681 65.524-56.465 129.65-126.52 105.17-40.242-14.062-60.212 18.129-69.715 37.18 6.691-18.877 16.169-36.395 27.855-51.6-1.665-0.824-34.6-1.118-49.132-3.489 16.588-1.192 24.309-5.514 24.309-5.514-30.081-5.03-58.91-19.892-82.359-42.457 14.376 5.597 29.173 9.706 44.161 12.315-43.602-33.373-102.15-85.683-145.7-229.03 6.272 6.904 12.545 13.808 18.818 20.712-13.189-34.159-22.435-87.647-21.358-133.02 4.49 13.965 9.56 27.675 15.179 41.073-3.695-25.147-5.081-49.323-4.701-69.707 1.373 7.67 3.064 15.261 5.051 22.746 2.058-153.37 29.277-316 76.304-422.79 41.468-94.168 141.74-66.19 190.85-5.469 6.365 7.869 13.222 16.599 20.01 26.326 54.157 45.377 112.49 112.45 160.14 183.58-35.61 6.518-69.773 15.226-107.63 31.09-0.138 0.058-0.294 0.086-0.467 0.086-3.012 1e-3 -11.148-8.463-21.671-12.364 2.457 3.97 2.27 7.548 1.389 10.291-1.376-6.411-2.703-12.872-3.975-19.35-4e-3 -0.022-9e-3 -0.044-0.013-0.068-0.835-4.25-1.647-8.506-2.437-12.757-7e-3 -0.037-0.013-0.073-0.02-0.109-0.786-4.235-1.551-8.462-2.292-12.676-0.011-0.059-0.021-0.118-0.032-0.177-0.739-4.202-1.456-8.387-2.151-12.548-0.011-0.062-0.021-0.124-0.031-0.186-0.693-4.148-1.364-8.271-2.014-12.357-0.012-0.081-0.025-0.16-0.037-0.239-0.646-4.066-1.27-8.094-1.872-12.078-0.016-0.102-0.031-0.204-0.046-0.307-0.598-3.959-1.175-7.871-1.731-11.728-0.017-0.119-0.034-0.237-0.051-0.356-0.551-3.833-1.082-7.611-1.591-11.323l-0.057-0.411c-0.245-1.788-0.485-3.561-0.72-5.317-8e-3 -0.056-0.015-0.113-0.023-0.169-0.241-1.803-0.477-3.586-0.708-5.353-0.023-0.168-0.044-0.335-0.066-0.503-0.212-1.625-0.42-3.234-0.623-4.826-0.019-0.148-0.039-0.298-0.057-0.446-0.216-1.687-0.426-3.355-0.631-5.002-0.024-0.187-0.046-0.37-0.069-0.556-0.182-1.463-0.36-2.909-0.534-4.339-0.03-0.246-0.06-0.493-0.09-0.738-0.19-1.563-0.375-3.107-0.555-4.628-0.02-0.17-0.04-0.336-0.06-0.506-0.16-1.356-0.316-2.693-0.47-4.013-0.032-0.279-0.064-0.557-0.096-0.833-0.166-1.442-0.328-2.863-0.486-4.258-0.02-0.186-0.04-0.365-0.061-0.55-0.137-1.222-0.271-2.424-0.4-3.608-0.034-0.308-0.068-0.615-0.102-0.919-0.143-1.315-0.283-2.611-0.418-3.876-0.018-0.163-0.034-0.32-0.051-0.482-0.12-1.131-0.237-2.239-0.35-3.33-0.03-0.295-0.061-0.589-0.091-0.881-0.124-1.202-0.245-2.385-0.36-3.535-0.01-0.099-0.02-0.194-0.029-0.294-0.106-1.061-0.208-2.095-0.307-3.109-0.028-0.282-0.055-0.564-0.082-0.843-0.105-1.082-0.207-2.146-0.302-3.171-1.438-15.357-3.005-27.104-4.632-36.193-1.147-0.974-2.294-1.941-3.441-2.898-0.578-0.482-1.157-0.957-1.736-1.436 1.946 9.448 3.853 22.527 5.575 40.924 0.123 1.307 0.251 2.643 0.382 3.992 0.033 0.348 0.067 0.698 0.102 1.049 0.13 1.329 0.262 2.67 0.4 4.036 4e-3 0.04 7e-3 0.079 0.011 0.119 0.141 1.396 0.288 2.818 0.437 4.252 0.038 0.363 0.076 0.726 0.114 1.092 0.305 2.913 0.628 5.898 0.966 8.952 0.04 0.358 0.08 0.718 0.121 1.079 0.343 3.081 0.704 6.229 1.082 9.438 0.045 0.379 0.089 0.759 0.134 1.139 0.384 3.237 0.784 6.533 1.201 9.885 0.044 0.358 0.089 0.718 0.134 1.077 0.425 3.396 0.867 6.848 1.326 10.346 0.044 0.341 0.089 0.681 0.134 1.022 0.466 3.529 0.948 7.105 1.448 10.721 0.046 0.336 0.093 0.672 0.14 1.008 0.507 3.656 1.032 7.352 1.575 11.082 0.042 0.293 0.085 0.586 0.128 0.879 0.55 3.766 1.117 7.566 1.703 11.393 0.043 0.281 0.086 0.563 0.129 0.845 0.591 3.843 1.199 7.712 1.825 11.599 0.044 0.279 0.089 0.556 0.134 0.834 0.63 3.904 1.279 7.826 1.945 11.757l0.132 0.78c0.671 3.951 1.361 7.912 2.068 11.876 0.044 0.247 0.089 0.494 0.133 0.741 0.71 3.969 1.439 7.939 2.185 11.905 0.047 0.252 0.095 0.504 0.142 0.756 0.747 3.956 1.512 7.906 2.294 11.843 0.053 0.266 0.106 0.532 0.159 0.799 0.782 3.919 1.581 7.827 2.398 11.712 0.059 0.278 0.118 0.556 0.176 0.834 0.405 1.919 0.814 3.835 1.227 5.744 1e-3 1e-3 1e-3 2e-3 1e-3 3e-3 0.092 0.426 0.188 0.849 0.281 1.276-2.674-5.495-11.165-20.767-18.706-21.59 10.5 16.167 2.688 31.023 2 34.084-2.951-7.04-5-14.75-4.333-24.751-11.042 12.459-9.85 46.53-10.292 51.584-1.101-5.501-3.75-16.875-2.375-39.5-10.346 24.859-15.305 55.005-19.119 83.28-51.574-55.333-91.551-115.48-105.82-149.61-6.718-16.072-14.679-33.166-23.108-51.264-6.774-14.544-13.778-29.584-20.15-44.192l-0.397-0.911 0.444-0.889c0.095-0.188 0.183-0.377 0.276-0.565-4.5-4.108-2.522 3.09-2.522 3.09 6.383 14.632 13.393 29.684 20.172 44.24 8.419 18.077 16.372 35.152 23.073 51.185 8.414 20.13 24.49 47.133 45.266 76.034 18.817 26.178 40.142 52.043 62.377 75.745-2.642 19.868-4.783 38.681-7.916 53.918-7.589 36.911-18.976 72.406-29.49 103.14 1.773 0.659 3.549 1.307 5.325 1.948 10.565-30.877 22.056-66.679 29.718-103.95 2.548-12.391 4.442-27.039 6.447-42.546 0.308-2.381 0.62-4.791 0.937-7.214 2.001 2.09 4.006 4.169 6.018 6.221 0.55-0.492 1.091-1 1.626-1.519-2.449-2.498-4.866-5.017-7.268-7.542 2.407-18.234 5.197-37.402 9.54-55.454 0.426 2.75 0.864 4.907 1.2 6.556l0.184 0.908 7.761 38.791 3.446-39.409c0.082-0.946 0.112-2.337 0.156-4.441 0.101-4.849 0.318-15.271 1.915-25.07 0.499 1.441 1.057 2.896 1.677 4.375l6.864 16.375 3.888-17.286c0.058-0.208 0.263-0.783 0.428-1.248 1.02-2.877 2.892-8.154 3.144-14.77 1.715 2.989 2.87 5.405 3.112 6.02l4.406 11.519 2.486-4.595c0.017 0.074 0.034 0.149 0.051 0.224 5.033 21.874 10.644 42.653 16.822 60.924 1.234-0.736 2.468-1.472 3.701-2.21-6.537-19.422-12.373-41.547-17.527-64.569l0.293-0.54c0.051-0.08 0.116-0.175 0.188-0.283 1.772-2.655 2.944-5.285 3.516-7.88 1.601 1.044 3.098 2.099 4.473 3.067 4.105 2.893 6.816 4.803 9.932 4.802 0.927 0 1.821-0.177 2.654-0.525 38.389-16.085 72.549-24.676 108.87-31.195 4.979 7.535 9.835 15.109 14.549 22.704 20.471 32.976 36.146 62.787 46.902 88.796-13.409 4.593-27.935 9.211-43.808 13.835-24.58 7.163-36.702 10.928-43.592 18.218" clip-path="url(#clipPath113)"/>
   <path transform="matrix(1.3333 0 0 -1.3333 1515.7 1292.5)" d="m0 0c0.729 1.897 0.989 3.932 0.762 6.044-0.689 6.476-11.028 39.397-16.456 45.286-11.009 11.937-17.31 18.746-26.572 28.381-5.76 5.989-10.305 10.717-13.013 13.658-3.308 3.584-6.762 4.873-12.489 7.012-7.653 2.859-19.22 7.182-40.53 20.521-3.877 2.427-7.231 4.664-10.188 6.639-16.798 11.2-22.456 14.976-45.964 2.256-1.064-0.578-2.643-1.389-4.581-2.391-20.914-10.785-40.709-21.909-43.906-30.203-0.525-1.368-0.618-2.671-0.269-3.872 3.272-11.295 16.853-13.328 29.703-13.829 46.154-1.79 90.716-22.165 122.26-55.899 2.877-3.077 4.663-6.464 6.389-9.741 2.293-4.346 4.662-8.843 9.483-12.544 2.287-1.757 4.298-3.867 6.243-5.908 4.695-4.929 9.552-10.023 17.576-8.586 5.324 0.953 18.07 4.143 21.551 13.176" clip-path="url(#clipPath115)"/>
   <path transform="matrix(1.3333 0 0 -1.3333 1327.2 1111.6)" d="m0 0c-5.451 0-12.048-2.311-22.057-7.727-0.913-0.496-2.209-1.166-3.786-1.98l-0.83-0.429c-12.84-6.621-39.552-20.396-42.898-29.079-0.356-0.926-0.427-1.772-0.211-2.514 2.895-9.997 15.649-11.827 27.744-12.298 46.707-1.812 91.806-22.431 123.73-56.572 3.075-3.287 4.927-6.801 6.718-10.201 2.293-4.347 4.45-8.436 8.896-11.848 2.42-1.86 4.488-4.03 6.488-6.128 4.005-4.204 7.786-8.174 13.345-8.174 0.746 0 1.526 0.072 2.317 0.214 4.966 0.888 16.85 3.822 19.942 11.847 0.609 1.586 0.822 3.286 0.632 5.052-0.734 6.901-11.087 38.845-15.906 44.072-11.032 11.963-17.223 18.657-26.54 28.349-5.512 5.73-10.272 10.68-13.046 13.691-2.961 3.209-6.051 4.364-11.661 6.458-7.74 2.892-19.427 7.258-40.921 20.714-3.97 2.485-7.447 4.807-10.241 6.673-9.241 6.161-14.819 9.88-21.715 9.88m117.14-151.2c-7.38 0-12.185 5.043-16.423 9.492-1.889 1.981-3.842 4.03-6 5.689-5.182 3.978-7.772 8.887-10.057 13.219-1.671 3.171-3.388 6.429-6.072 9.299-31.166 33.329-75.192 53.459-120.79 55.228-13.61 0.53-28.015 2.77-31.663 15.361-0.48 1.653-0.37 3.412 0.327 5.226 3.261 8.46 20.313 18.643 44.915 31.331l0.83 0.428c1.544 0.797 2.813 1.452 3.71 1.941 10.677 5.776 17.878 8.24 24.084 8.24 8.185 0 14.504-4.214 24.071-10.593 2.776-1.853 6.225-4.156 10.141-6.608 21.13-13.227 32.573-17.502 40.146-20.332 5.818-2.172 9.657-3.607 13.307-7.562 2.743-2.979 7.488-7.913 12.983-13.626 9.329-9.703 15.86-16.765 26.602-28.413 5.839-6.333 16.307-39.905 17.008-46.503 0.263-2.439-0.037-4.805-0.892-7.03-3.871-10.044-17.486-13.491-23.16-14.507-1.038-0.185-2.07-0.28-3.067-0.28" clip-path="url(#clipPath117)"/>
  </g>
  <g>
   <path transform="matrix(1.3333 0 0 -1.3333 1514.1 1284.7)" d="m0 0c1.069-10.061-10.717-15.256-20.677-17.038-9.962-1.783-14.226 7.95-22.253 14.111-8.025 6.162-8.715 14.677-15.627 22.066-31.752 33.953-77.191 54.728-123.64 56.532-10.907 0.423-24.824 1.899-27.861 12.387-2.727 9.418 39.163 29.482 47.788 34.149 26.499 14.339 28.602 7.159 54.14-8.831 37.181-23.28 45.544-19.537 52.606-27.194 7.062-7.66 21.685-22.627 39.587-42.04 4.778-5.184 15.192-37.128 15.94-44.142" clip-path="url(#clipPath119)" fill="#fff"/>
   <path transform="matrix(1.3333 0 0 -1.3333 1455.4 1289.1)" d="m0 0c-8.024 6.161-8.716 14.674-15.628 22.063-31.753 33.955-77.189 54.728-123.64 56.53-10.907 0.426-24.825 1.904-27.86 12.389-1.896 6.546 17.758 18.232 32.817 26.318 2.903-5.055 8.608-7.935 16.051-8.398 6.277-0.392 12.361 0.43 18.583 1.082 10.684 1.119 22.085 0.625 22.085 0.625s27.996-15.109 38.167-20.535c20.248-10.803 25.092-8.931 31.045-13.302 7.241-5.317 17.52-18.418 25.435-25.073 5.523-4.644 10.705-5.621 10.727-5.653 4.067-5.324 14.403-36.109 15.15-43.119 1.07-10.064-10.719-15.257-20.676-17.04-9.962-1.783-14.227 7.949-22.254 14.113" clip-path="url(#clipPath121)" fill="#fff"/>
   <path transform="matrix(1.3333 0 0 -1.3333 1522.4 1317.5)" d="m0 0c0.729 1.896 0.986 3.928 0.761 6.043-0.691 6.476-11.555 39.599-16.978 45.482-11.016 11.946-16.802 18.561-26.069 28.204-5.749 5.977-10.288 10.7-12.995 13.636-3.309 3.586-6.763 4.877-12.488 7.016-7.655 2.859-19.22 7.179-40.53 20.52-3.88 2.43-7.231 4.665-10.189 6.636-16.798 11.206-22.457 14.98-45.965 2.259-1.066-0.578-2.642-1.391-4.583-2.393-20.913-10.785-40.706-21.91-43.901-30.2-0.528-1.37-0.621-2.673-0.272-3.873 3.272-11.297 16.853-13.332 29.705-13.83 46.15-1.79 90.711-22.165 122.26-55.898 2.876-3.076 4.662-6.464 6.389-9.741 2.291-4.347 4.66-8.842 9.479-12.544 2.292-1.758 4.303-3.868 6.246-5.908 4.697-4.928 9.554-10.025 17.58-8.586 5.319 0.951 18.069 4.145 21.547 13.174z" clip-path="url(#clipPath123)" fill="#3eb5f1"/>
   <path transform="matrix(1.3333 0 0 -1.3333 1333.9 1136.6)" d="m0 0c-5.451 0-12.048-2.311-22.058-7.728-1.039-0.563-2.563-1.35-4.438-2.318l-0.182-0.094c-12.836-6.62-39.546-20.394-42.892-29.075-0.357-0.928-0.429-1.774-0.213-2.515 2.897-10.002 15.651-11.831 27.745-12.299 46.703-1.812 91.802-22.431 123.73-56.571 3.073-3.284 4.925-6.8 6.717-10.201 2.284-4.336 4.443-8.43 8.894-11.848 2.427-1.864 4.493-4.032 6.49-6.128 4.008-4.204 7.791-8.174 13.347-8.174h1e-3c0.746 0 1.525 0.071 2.318 0.214 4.965 0.887 16.846 3.819 19.938 11.845l0.067 0.173c0.558 1.532 0.749 3.173 0.566 4.883-0.678 6.368-11.468 38.888-16.426 44.268-3.75 4.064-6.893 7.512-9.774 10.673-5.682 6.232-10.168 11.154-16.266 17.497-5.49 5.709-10.232 10.639-13.025 13.669-2.965 3.213-6.056 4.369-11.668 6.465-7.736 2.89-19.425 7.255-40.914 20.71-3.846 2.408-7.17 4.622-10.103 6.576l-0.137 0.092c-9.241 6.165-14.819 9.886-21.717 9.886m117.14-151.2h-1e-3c-7.377 0-12.183 5.042-16.423 9.49-1.888 1.982-3.838 4.028-6.003 5.691-5.191 3.985-7.78 8.901-10.067 13.239-1.661 3.152-3.378 6.411-6.06 9.279-31.17 33.328-75.196 53.458-120.79 55.227-13.611 0.527-28.016 2.764-31.665 15.362-0.481 1.653-0.369 3.413 0.329 5.228 3.26 8.458 20.311 18.64 44.911 31.327l0.181 0.092c1.842 0.952 3.34 1.724 4.363 2.279 10.675 5.777 17.877 8.241 24.083 8.241 8.187 0 14.508-4.217 24.075-10.6l0.137-0.09c2.909-1.939 6.207-4.136 10.001-6.512 21.125-13.226 32.57-17.501 40.143-20.33 5.816-2.172 9.656-3.607 13.309-7.567 2.763-2.997 7.491-7.913 12.965-13.604 6.137-6.385 10.64-11.324 16.342-17.579 2.877-3.156 6.015-6.598 9.757-10.657 5.891-6.39 16.851-40.334 17.53-46.698 0.261-2.45-0.038-4.816-0.891-7.032l-0.178-0.437c-4.088-9.708-17.39-13.069-22.982-14.069-1.038-0.186-2.07-0.28-3.067-0.28" clip-path="url(#clipPath125)" fill="#3eb5f1"/>
   <path transform="matrix(1.3333 0 0 -1.3333 1520.8 1309.7)" d="m0 0c1.072-10.063-10.717-15.256-20.674-17.038-9.962-1.784-14.228 7.949-22.256 14.111-8.023 6.158-8.714 14.674-15.624 22.065-31.754 33.952-77.191 54.728-123.64 56.531-10.91 0.425-24.826 1.902-27.865 12.388-2.727 9.417 36.59 32.639 45.213 37.305 26.498 14.339 29.18 9.031 52.799-8.241 35.411-25.895 49.461-23.283 56.524-30.941 7.061-7.658 20.647-21.065 38.548-40.481 4.781-5.183 16.229-38.687 16.976-45.699" clip-path="url(#clipPath127)" fill="#fff"/>
   <path transform="matrix(1.3333 0 0 -1.3333 1462.2 1314.4)" d="m0 0c-8.026 6.161-8.716 14.675-15.628 22.065-31.754 33.953-77.187 54.729-123.64 56.53-10.909 0.425-24.824 1.902-27.864 12.388-2.725 9.417 23.362 3.224 31.985 7.891 0.366 0.196 11.146 5.147 11.503 5.336 5.261-6.834 15.051 12.21 22.712 7.906 7.409-4.164 7.151 0.171 14.871-3.357 13.586-6.209 27.759-13.303 38.23-17.946 19.18-8.507 25.544-8.982 30.664-13.778 6.309-5.907 27.192-32.494 35.606-35.543 3.856-1.396 7.318 0.545 10.028 3.126 5.432-10.544 13.829-35.722 14.464-41.693 1.071-10.059-10.715-15.254-20.68-17.036-9.955-1.785-14.226 7.947-22.249 14.111" clip-path="url(#clipPath129)" fill="#fff"/>
   <path transform="matrix(1.3333 0 0 -1.3333 1501.2 1319.6)" d="m0 0c2.779-4.455 10.562-6.063 14.449-4.976 2.54 0.71 2.833 2.371 2.843 3.049 0.096 8.494-7.222 29.981-7.533 30.891l-0.823 2.4-1.923-1.655c-0.526-0.456-12.858-11.317-7.79-28.005 0.177-0.594 0.44-1.167 0.775-1.702z" clip-path="url(#clipPath131)" fill="#3eb5f1"/>
   <path transform="matrix(1.3333 0 0 -1.3333 1511.4 1280.3)" d="m0 0c-1.626-3.622-5.055-13.824 2.145-23.845 0.219-0.306 0.475-0.578 0.754-0.825 0.848 0.663 1.664 1.309 2.483 1.924-5.862 8.199-6.361 16.484-5.382 22.746" clip-path="url(#clipPath133)" fill="#fff" stroke="#3eb5f1" stroke-miterlimit="10" stroke-width="1.417"/>
   <path transform="matrix(1.3333 0 0 -1.3333 1516 1335.8)" d="m0 0c1.229 2.736 1.771 5.581 1.62 8.451-0.419 7.986-5.974 14.698-10.028 19.6l-50.515 61.034c-3.11 3.757-6.491 5.229-12.095 7.673-7.489 3.264-18.811 8.199-39.371 22.662-3.742 2.632-6.971 5.044-9.82 7.174-16.173 12.086-21.624 16.156-45.775 4.714-1.098-0.518-2.713-1.246-4.706-2.142-21.462-9.65-41.823-19.701-45.455-27.809-0.6-1.337-0.762-2.634-0.479-3.85 2.664-11.456 16.113-14.214 28.923-15.402 45.986-4.259 89.394-26.992 119.09-62.364 1.637-1.951 3.271-3.983 4.846-5.949 4.721-5.872 9.604-11.945 15.48-16.977 5.393-4.623 16.371-12.14 29.252-10.539 8.159 1.014 15.808 6.531 19.029 13.724z" clip-path="url(#clipPath135)" fill="#3eb5f1"/>
   <path transform="matrix(1.3333 0 0 -1.3333 1324.4 1154.5)" d="m0 0c-5.266 0-11.654-1.963-21.364-6.562-1.11-0.524-2.737-1.258-4.745-2.161-13.172-5.923-40.581-18.247-44.385-26.738-0.407-0.907-0.525-1.747-0.35-2.499 2.359-10.141 14.997-12.649 27.049-13.767 46.54-4.311 90.468-27.315 120.52-63.114 1.636-1.95 3.241-3.945 4.877-5.987 4.658-5.793 9.476-11.787 15.204-16.691 4.465-3.828 13.56-10.248 24.305-10.248 1.104 0 2.214 0.069 3.301 0.204 7.45 0.925 14.423 5.942 17.352 12.483 1.09 2.421 1.574 4.934 1.441 7.471-0.382 7.278-5.672 13.674-9.534 18.345l-50.524 61.044c-2.785 3.364-5.807 4.682-11.295 7.075-7.584 3.306-19.024 8.292-39.756 22.876-3.826 2.691-7.177 5.197-9.87 7.21-9.228 6.897-14.798 11.059-22.228 11.059m121.11-152.02c-12.114 0-22.161 7.062-27.072 11.271-6.026 5.16-10.971 11.311-15.753 17.259-1.622 2.025-3.21 3.999-4.817 5.914-29.34 34.948-72.225 57.406-117.66 61.614-13.562 1.258-27.827 4.265-30.796 17.037-0.392 1.679-0.186 3.429 0.61 5.203 3.705 8.271 21.277 17.526 46.521 28.877 1.979 0.889 3.582 1.612 4.672 2.125 10.312 4.886 17.245 6.971 23.181 6.971 8.844 0 15.181-4.735 24.773-11.904 2.672-1.998 5.997-4.484 9.771-7.138 20.381-14.337 31.582-19.22 38.994-22.451 5.699-2.485 9.455-4.122 12.887-8.268l50.514-61.034c4.25-5.139 10.059-12.161 10.514-20.844 0.169-3.217-0.438-6.391-1.804-9.433-3.516-7.847-11.838-13.861-20.711-14.962-1.259-0.157-2.546-0.237-3.825-0.237" clip-path="url(#clipPath137)" fill="#3eb5f1"/>
   <path transform="matrix(1.3333 0 0 -1.3333 1516.9 1325.1)" d="m0 0c0.533-10.106-8.862-18.836-18.905-20.085-10.04-1.247-20.018 3.488-27.703 10.072-7.684 6.582-13.59 14.946-20.094 22.694-29.889 35.602-74.149 58.782-120.44 63.071-10.869 1.007-24.686 3.228-27.156 13.862-2.22 9.549 41.691 32.78 50.551 36.977 27.23 12.902 29.181 2.37 51.263-15.443 34.145-27.541 45.756-23.659 52.397-31.683 6.642-8.025 33.674-40.691 50.515-61.035 4.494-5.431 9.204-11.391 9.571-18.43" clip-path="url(#clipPath139)" fill="#fff"/>
   <path transform="matrix(1.3333 0 0 -1.3333 1502.5 1330.1)" d="m0 0c-6.379 0-12.304 3.212-15.848 8.591-3.701 5.616-7.455 11.719-11.086 17.619-9.223 14.993-18.761 30.497-28.712 40.265-3.19 3.13-9.476 6.098-16.754 9.535-5.228 2.468-11.153 5.265-16.916 8.612-6.769 3.931-22.317 12.438-27.905 14.683-2.334 0.939-7.038 2.139-12.484 3.528-8.785 2.24-19.718 5.028-26.714 8.318-4.541 2.136-8.214 4.502-11.163 7.197-27.691-15.695-32.856-23.355-32.472-25.005 1.964-8.464 13.565-10.655 24.655-11.681 47.247-4.38 91.841-27.733 122.35-64.072 1.673-1.993 3.324-4.048 4.922-6.035 3.507-4.363 7.107-8.833 11.084-12.82 2.173 1.911 4.445 3.691 7.174 4.861-2.729-1.17-5.001-2.95-7.174-4.861 1.218-1.219 2.467-2.398 3.764-3.509 5.636-4.831 11.767-7.956 17.689-9.097 0.639 2.409 1.158 4.843 0.721 7.467 0.437-2.624-0.082-5.058-0.721-7.467 1.657-0.318 3.299-0.491 4.908-0.491 0.979 0 1.958 0.06 2.913 0.179 7.087 0.878 14.616 6.515 16.143 13.787-3.368-0.416-6.514-1.279-9.243-4.008 2.729 2.729 5.875 3.592 9.243 4.008 0.186 0.881 0.3 1.782 0.297 2.706-2.552-1.497-5.537-2.31-8.67-2.31" clip-path="url(#clipPath141)" fill="#3eb5f1"/>
   <path transform="matrix(1.3333 0 0 -1.3333 1516.7 1320)" d="m0 0c-2.693-3.214-6.609-4.784-10.634-4.784-5.064 0-10.3 2.488-13.48 7.315-13.039 19.783-25.976 44.405-40.181 58.348-6 5.889-20.476 10.588-34.231 18.575-6.708 3.896-22.457 12.525-28.27 14.861-6.468 2.604-28.019 6.594-39.051 11.783-4.402 2.07-8.632 4.696-11.906 8.144-15.852-8.868-37.264-22.422-35.696-29.159 2.468-10.636 16.285-12.856 27.154-13.862 46.29-4.291 90.55-27.469 120.44-63.074 5.32-6.336 10.255-13.069 16.076-18.918 1.401 1.273 2.799 2.55 4.288 3.709-3.889 3.863-7.4 8.216-11.063 12.774-1.606 1.999-3.267 4.065-4.96 6.081-30.983 36.906-76.274 60.625-124.26 65.073-9.213 0.853-19.938 2.643-21.993 8.919 1.205 2.502 8.558 9.622 29.216 21.489 2.858-2.329 6.258-4.411 10.289-6.306 7.241-3.406 18.32-6.231 27.221-8.501 5.126-1.307 9.968-2.542 12.129-3.412 5.382-2.162 21.014-10.715 27.537-14.503 5.867-3.407 11.85-6.233 17.129-8.725 6.752-3.188 13.131-6.199 15.977-8.994 9.705-9.525 19.151-24.879 28.286-39.728 3.641-5.919 7.407-12.041 11.132-17.693 4.071-6.178 10.88-9.865 18.215-9.865 0.371 0 0.739 0.014 1.107 0.033 3.066 2.041 6.542 2.4 10.21 2.69 0.16 1.044 0.223 2.112 0.167 3.197-0.082 1.563-0.389 3.07-0.85 4.533" clip-path="url(#clipPath143)" fill="#fff"/>
   <path transform="matrix(1.3333 0 0 -1.3333 1464.3 1374)" d="m0 0c2.795 3.856 5.195 10.764 0.754 21.771-1.264 3.129-2.897 7.55-4.787 12.669-7.469 20.211-18.758 50.754-28.162 58.805-7.33 6.276-15.125 13.951-22.66 21.372-14.231 14.014-28.948 28.504-41.575 34.605-47.361 22.88-131.69 33.157-180.47 21.998l-1.336-0.305-0.196-1.356c-2.759-18.847-2.371-43.236 15.143-52.385 26.988-14.102 56.377-15.713 73.936-16.677 4.017-0.222 7.486-0.411 10.031-0.709 55.705-6.546 84.928-14.856 121.98-48.714 4.725-15.592 12.252-33.078 26.127-50.391 3.463-4.321 7.969-6.471 13.895-7.138 7.355-0.826 13.755 1.539 17.318 6.455" clip-path="url(#clipPath145)" fill="#3eb5f1"/>
   <path transform="matrix(1.3333 0 0 -1.3333 1095.8 1148.4)" d="m0 0c-2.647-18.158-2.348-41.55 14.035-50.108 26.576-13.887 55.674-15.485 73.06-16.439l0.152-8e-3c3.991-0.22 7.439-0.411 10.018-0.713 56.052-6.586 85.554-14.886 123.17-49.255l0.431-0.394 0.169-0.56c5.753-18.984 14.177-35.234 25.752-49.678 3.017-3.763 6.863-5.723 12.474-6.355 0.876-0.098 1.752-0.148 2.602-0.148h1e-3c5.544 0 10.073 2.038 12.755 5.738 2.481 3.423 4.581 9.624 0.504 19.729-1.275 3.159-2.913 7.593-4.81 12.728-6.942 18.787-18.562 50.233-27.55 57.926-7.402 6.338-15.214 14.032-22.77 21.473-14.105 13.89-28.691 28.254-41.007 34.205-32.579 15.738-85.851 26.312-132.56 26.312-17.849 0-33.468-1.498-46.426-4.453m261.86-177.91h-1e-3c-1.009 0-2.044 0.059-3.078 0.176-6.724 0.756-11.592 3.273-15.316 7.92-11.806 14.732-20.423 31.27-26.331 50.543-36.543 33.246-65.493 41.333-120.37 47.781-2.449 0.286-5.835 0.473-9.756 0.689l-0.145 8e-3c-17.737 0.974-47.41 2.603-74.803 16.915-18.621 9.729-19.121 35.049-16.261 54.577l0.402 2.797 2.76 0.63c13.284 3.038 29.252 4.579 47.459 4.579 47.292 0 101.31-10.744 134.41-26.736 12.948-6.256 27.789-20.87 42.141-35.004 7.503-7.39 15.262-15.03 22.551-21.272 9.827-8.413 21.229-39.266 28.774-59.682 1.884-5.104 3.511-9.51 4.764-12.611 4.805-11.909 2.106-19.523-1.004-23.815-3.452-4.763-9.356-7.495-16.198-7.495" clip-path="url(#clipPath147)" fill="#3eb5f1"/>
   <path transform="matrix(1.3333 0 0 -1.3333 1225.5 1238.3)" d="m0 0c54.621-6.416 84.572-13.948 123.61-49.692 5.043-18.177 15.364-36.918 25.834-50.158 9.235-11.676 40.012-9.338 28.543 19.101-6.195 15.366-21.189 60.851-32.392 70.701-35.354 31.08-49.297 53.948-60.973 60.56-44.521 25.206-132.12 28.396-181.99 16.983-1.992-13.607-3.881-40.932 14.094-50.324 32.875-17.175 69.611-15.567 83.273-17.171" clip-path="url(#clipPath149)" fill="#fff"/>
  </g>
  <g fill="#3eb5f1">
   <path transform="matrix(1.3333 0 0 -1.3333 1094.7 1146.4)" d="m0 0c2.49 0.569 5.074 1.101 7.744 1.599 0.277-9.088 6.32-12.337 21.553-20.297 32.875-17.177 86.777-17.485 100.44-19.043 38.451-4.386 95.397-61.921 101.2-70.889 5.799-8.968 11.391-32.245 21.891-45.464 7.264-9.145 17.674-8.279 25.049-5.781-0.09-9.271-6.424-13.884-15.469-14.066-6.816-0.14-11.326 3.374-14.303 7.139-10.47 13.24-19.775 30.791-24.818 48.968-39.037 35.743-71.301 43.922-125.92 50.336-13.658 1.604-50.394-3e-3 -83.271 17.173-17.977 9.39-16.084 36.718-14.092 50.325" clip-path="url(#clipPath151)"/>
   <path transform="matrix(1.3333 0 0 -1.3333 540.02 1111.4)" d="m0 0c0.024 1e-3 0.047-2e-3 0.071-3e-3 -0.015 1e-3 -0.027 8e-3 -0.042 8e-3 -8e-3 0-0.02-4e-3 -0.029-5e-3m-12.172 508.57c3.501-0.922 5.492-1.557 5.492-1.557s-1.986 0.643-5.492 1.557m364.13-504.83c-18.208 8.184-34.522 16.683-51.794 25.68-40.952 21.334-87.368 45.515-170.97 69.87-24.58 7.162-36.702 10.928-43.592 18.218-7.38 7.806-7.144 17.512-6.714 35.129 0.274 11.246 0.649 26.648-0.839 47.567-0.945 13.278-0.582 29.373-0.162 48.009 0.683 30.35 1.457 64.747-3.196 98.457-5.337 38.669-16.801 68.232-35.048 90.378l-13.581 16.484 14.819-5.624c-12.4 8.337-28.298 17.605-48.322 26.951l-20.206 9.432 22.257 1.364c2.589 0.159 4.996 0.236 7.361 0.236 0.666 0 1.323-6e-3 1.975-0.019-13.205 4.773-30.115 8.922-54.643 12.595l-26.21 3.925 25.279 7.073c-4.229 0.317-8.613 0.503-13.074 0.503-11.668 0-22.39-1.268-31.87-3.767-0.947-0.25-1.952-0.511-3.01-0.784-9.581-2.48-23.446-6.069-36.288-12.926 0.12 1.528 0.196 3.048 0.239 4.564-19.601-8.517-36.313-22.46-36.313-50.538 0-102 26.593-104 35.259-135.33 4.776-17.267 13.202-40.247 22.275-66.769-6e-3 0.018-0.012 0.036-0.018 0.053 1.773 0.66 3.549 1.307 5.325 1.949 10.565-30.878 22.056-66.68 29.718-103.95 2.548-12.392 4.442-27.039 6.447-42.546 2.731-21.118 5.703-44.105 10.854-65.508 0.425 2.75 0.863 4.906 1.199 6.556l0.184 0.908 7.761 38.791 3.446-39.409c0.082-0.947 0.112-2.337 0.156-4.442 0.101-4.848 0.318-15.27 1.915-25.069 0.499 1.44 1.057 2.896 1.677 4.375l6.864 16.375 3.888-17.286c0.058-0.208 0.263-0.783 0.428-1.248 1.02-2.877 2.892-8.154 3.144-14.771 1.715 2.99 2.87 5.406 3.112 6.021l4.406 11.518 5.826-10.765c0.051-0.08 0.116-0.175 0.188-0.283 1.772-2.656 2.944-5.286 3.516-7.88 1.601 1.044 3.098 2.098 4.473 3.067 4.105 2.893 6.817 4.803 9.932 4.802 0.927 0 1.821-0.177 2.654-0.526 58.75-24.616 107.59-31.682 169.42-40.627 46.507-6.728 99.219-14.354 166.98-31.311 1.412-0.354 2.899-0.533 4.418-0.533 6.584 0 14 3.384 20.347 9.283 6.533 6.074 11.278 14.209 13.017 22.32 3.564 16.623-5.285 30.636-24.915 39.459m-350.24 476.48c0.178 0 0.354-1e-3 0.53-1e-3 -0.094 0-0.184 5e-3 -0.28 5e-3 -0.081 0-0.168-4e-3 -0.25-4e-3m-22.342 27.724c-0.097 0-0.199-2e-3 -0.297-2e-3 0.242 0 0.48 0 0.717-1e-3 -0.141 0-0.277 3e-3 -0.42 3e-3" clip-path="url(#clipPath153)"/>
   <path transform="matrix(1.3333 0 0 -1.3333 1446.7 1357.9)" d="m0 0c2.893-3.921 10.205-4.847 13.723-3.56 2.297 0.843 2.449 2.397 2.406 3.025-0.52 7.862-8.838 27.207-9.193 28.026l-0.932 2.162-1.66-1.671c-0.455-0.458-11.078-11.391-5.184-26.463 0.207-0.535 0.49-1.045 0.84-1.519" clip-path="url(#clipPath155)"/>
  </g>
  <g>
   <path transform="matrix(1.3333 0 0 -1.3333 1454.1 1324.4)" d="m0 0c-2.326-5.416-3.787-13.006-0.365-21.755 0.814-2.08 2.736-3.529 5.01-4.443-3.215 0.137-7.083 1.421-8.198 4.271-4.168 10.663 1.26 19.043 3.553 21.927" clip-path="url(#clipPath157)" fill="#fff" stroke="#3eb5f1" stroke-miterlimit="10" stroke-width="1.417"/>
   <path transform="matrix(1.3333 0 0 -1.3333 1497.1 1324.9)" d="m0 0c4.337-2.959 12.107-1.299 15.228 1.266 2.039 1.672 1.639 3.309 1.375 3.934-3.332 7.811-18.685 24.532-19.335 25.237l-1.721 1.868-1.096-2.289c-0.296-0.627-7.21-15.536 4.15-28.773 0.403-0.468 0.874-0.888 1.395-1.242z" clip-path="url(#clipPath159)" fill="#3eb5f1"/>
   <path transform="matrix(1.3333 0 0 -1.3333 1492.6 1288.1)" d="m0 0c-0.437-6.343 0.778-14.583 7.369-22.263 1.572-1.828 4.046-2.619 6.686-2.737-3.319-1.009-7.711-1.079-9.863 1.425-8.037 9.364-5.501 19.821-4.192 23.575" clip-path="url(#clipPath161)" fill="#fff" stroke="#3eb5f1" stroke-miterlimit="10" stroke-width="1.417"/>
   <path transform="matrix(1.3333 0 0 -1.3333 1325.9 1134.1)" d="m0 0s9.904 20.154 13.315 25.8c-0.205-0.143-0.317-0.201-0.267-0.113-5.301-1.227-15.752-3.349-26.332-3.444-8.461-0.076-19.608-0.113-34.077-0.113-13.036 0-27.246 0.029-41.407 0.057-14.062 0.029-28.077 0.058-40.848 0.058-15.317 0-26.369-0.041-34.783-0.128-1.649-0.016-3.532-8e-3 -5.607 2e-3 -1.389 7e-3 -2.861 0.015-4.405 0.015-15.001 0-32.91-0.89-47.001-6.703-1.357-0.521-4.248-0.716-4.468-0.498-2.423-1.233-4.723-2.629-6.837-4.237 1.751 4.15-49.042-36.779-36.611-52.467 5.25-6.625 17.605-13.43 17.605-13.43s79.969-5.664 90.096-6.271c14.451-7.805 31.957-9.938 47.793-5.498-8.434-0.036-16.85 1.734-24.588 5.073 19.623-2.671 77.43-13.231 112.83 4.056-5.97-1.851-12.207-2.829-18.453-2.934 8.707 1.768 16.496 5.142 21.551 11.392 2.017 2.494 17.17 27.001 20.181 31.993 0 0-3.742-4.207-5.771-5.619 3.16 12.99 10.699 24.419 15.252 28.785-2.982-0.847-7.168-5.776-7.168-5.776" clip-path="url(#clipPath163)" fill="#3eb5f1"/>
   <path transform="matrix(1.3333 0 0 -1.3333 1268 1217.5)" d="m0 0c-10.099-2.384-21.841-3.602-35.16-3.602-21.043 0-41.529 2.996-53.769 4.786-2.214 0.323-4.183 0.611-5.871 0.84l-10.261 1.397 9.508-4.103c4.683-2.019 9.628-3.473 14.639-4.319-2.09-0.213-4.203-0.319-6.329-0.319-7.564 0-15.196 1.255-22.272 3.959-1.943 0.743-10.9 3.014-12.507 3.171-0.79 0.077 2.925-2.128 2.745-2.117 0.248-0.015 0.48-0.03 0.684-0.043 9.567-5.107 20.399-7.805 31.35-7.805 5.894 0 11.689 0.787 17.222 2.339l4.092 1.147c9.433-0.996 20.02-1.767 30.769-1.767 16.622 0 30.906 1.856 42.647 5.525-2.5 0.292-4.997 0.597-7.487 0.911" clip-path="url(#clipPath165)" fill="#fff" stroke="#3eb5f1" stroke-miterlimit="10" stroke-width="1.417"/>
  </g>
  <path transform="matrix(1.3333 0 0 -1.3333 662.64 753.13)" d="m0 0s2.617-11.514-8.762-18.821c5.875 9.203 1.292 19.179 1.292 19.179z" clip-path="url(#clipPath167)" fill="#3eb5f1" fill-rule="evenodd"/>
  <path transform="matrix(1.3333 0 0 -1.3333 660.03 750)" d="m0 0s-2.36-18.729 20.51-27.238c-13 12.906-6.629 29.738-6.629 29.738z" clip-path="url(#clipPath169)" fill="#3eb5f1" fill-rule="evenodd"/>
 </g>
 <g>
  <path transform="matrix(1.3333 0 0 -1.3333 727.71 174.49)" d="m0 0c-20.388-10.622-46.049-34.917-55.991-60.407-8.099-9.38-12.265 2.404-9.751 11.426 5.104 16.945 24.731 46.853 50.386 59.864 8.384 3.728 19.809-0.131 15.356-10.883m-134.17-25.765c-0.926-12.212-3.545 31.609-27.164 30.969-17.587-0.479-37.569-28.935-39.289-46.743-1.808-18.694 16.006-90.937 55.71-64.583-20.256-29.454-74.75 8.46-67.925 69.914 4.132 37.222 28.557 53.819 49.142 51.94 2.935-0.265 5.804-0.91 8.515-1.93 13.028-4.876 22.623-18.297 21.011-39.567m-9.143-24.084s-0.562 1.464-1.795 3.378l-2.26 2.351-4.18 1.354c-3.779 0.467-8.731-0.755-13.455-7.503 4.785 7.809 8.772 10.448 11.88 10.696l0.531-0.087-2.907 1.326c-5.182 1.411-12.209 0.357-21.42-6.616 13.18 11.232 21.2 13.346 26.079 11.612 8.131-2.898 7.527-16.511 7.527-16.511m191.62-164.11c6.617 0.052 19.663 28.365-29.246 49.958-11.203 120.96 22.568 82.627 39.739 103.38 12.638 15.266 4.298 28.105 1.082 21.121 1.288 5.209-6.172 18.532-25.206 21.915-14.602 26.239-33.361 64.455-90.599 83.746-13.575 4.575-26.727 7.556-39.383 9.131 3.838 3.879 11.845 7.152 26.542 8.871-16.16 6.224-34.364 4.915-43.701-3.434-10.822 9.924-32.21 13.588-40.368 11.618 15.424-5.017 22.416-10.643 24.574-16.107-83.238-5.825-138.35-74.656-140.06-141.92-1.298-51.424 27.664-86.656 57.464-121.44 1.807 0.06 3.608 0.101 5.392 0.101 31.062 0 58.023-8.621 58.023-8.621s-5.483 0.926-13.942 0.926c-7.847 0-18.258-0.796-29.236-3.868 62.505-9.36 77.274-22.179 104.3-39.498-21.636 10.37-33.728 15.645-52.467 15.646-2.236 0-4.562-0.075-7.015-0.225 66.687-31.125 88.366-61.223 88.366-61.223s-20.151 14.61-39.305 21.879c39.282-47.676 40.893-119.78 39.847-177.75 90.721-15.926 119.45 75.192 122.55 80.624 20.725-3.815 30.479 16.749 22.464 29.954 0 0-2.289 5.217-5.09 4.726-6.459-1.134-19.085-1.107-19.085-1.107-96.957-0.397-114.01 78.627-110.3 80.362 2.868 1.336 26.921-53.474 125.33-58.446 0 0 7.538-0.297 10.736-0.518 2.619-0.181 5.234 5.451 5.636 8.488 0.901 6.806-10.609 48.442-47.041 81.71m-149.42-51.645-13.581 16.484 14.82-5.624c-12.401 8.337-28.298 17.605-48.323 26.951l-20.206 9.432 22.257 1.364c2.589 0.159 4.997 0.236 7.362 0.236 0.666 0 1.322-6e-3 1.974-0.019-13.205 4.773-30.115 8.922-54.642 12.595l-5.561 0.832c11.372-13.569 22.184-27.44 30.725-42.525 32.964-63.876-14.096-162.9 98.887-191.62 1.639-0.417 3.257-0.795 4.859-1.146 0.461 26.226 0.341 54.68-3.522 82.667-5.338 38.669-16.802 68.232-35.049 90.378m-104.34 72.92c-0.206 0-0.406-8e-3 -0.611-8e-3 0.996-1.163 1.991-2.325 2.984-3.489l10.701 2.994c-4.229 0.317-8.612 0.503-13.074 0.503" clip-path="url(#clipPath171)" fill="#3eb5f1" fill-rule="evenodd"/>
  <g fill="#2f98db">
   <path transform="matrix(1.3333 0 0 -1.3333 715.8 176.37)" d="m0 0c0.254-0.422 0.128-1.014-0.284-1.338-0.411-0.314-0.974-0.233-1.236 0.196-0.26 0.409-0.147 1.015 0.272 1.315 0.418 0.334 0.975 0.244 1.248-0.173" clip-path="url(#clipPath173)"/>
   <path transform="matrix(1.3333 0 0 -1.3333 707.1 181.78)" d="m0 0c0.272-0.409 0.158-0.967-0.229-1.254-0.381-0.295-0.888-0.201-1.143 0.209-0.261 0.401-0.166 0.96 0.228 1.247 0.388 0.287 0.894 0.207 1.144-0.202" clip-path="url(#clipPath175)"/>
   <path transform="matrix(1.3333 0 0 -1.3333 700.85 187.64)" d="m0 0c0.249-0.403 0.148-0.975-0.233-1.268-0.382-0.288-0.908-0.193-1.155 0.208-0.25 0.403-0.142 0.974 0.233 1.263 0.405 0.293 0.92 0.192 1.155-0.203" clip-path="url(#clipPath177)"/>
   <path transform="matrix(1.3333 0 0 -1.3333 661.54 227.7)" d="m0 0c0.262-0.42 0.172-0.998-0.208-1.278-0.382-0.294-0.908-0.19-1.175 0.235-0.267 0.426-0.171 0.985 0.222 1.293 0.375 0.274 0.901 0.183 1.161-0.25" clip-path="url(#clipPath179)"/>
   <path transform="matrix(1.3333 0 0 -1.3333 657.35 236.38)" d="m0 0c0.219-0.352 0.086-0.85-0.27-1.116-0.356-0.296-0.839-0.225-1.052 0.099-0.211 0.352-0.074 0.863 0.271 1.144 0.356 0.267 0.839 0.224 1.051-0.127" clip-path="url(#clipPath181)"/>
   <path transform="matrix(1.3333 0 0 -1.3333 654.29 244.95)" d="m0 0c0.187-0.277 0.087-0.714-0.233-0.969-0.314-0.239-0.723-0.177-0.905 0.107s-0.076 0.721 0.245 0.955c0.326 0.24 0.717 0.198 0.893-0.093" clip-path="url(#clipPath183)"/>
  </g>
  <path transform="matrix(1.3333 0 0 -1.3333 697.9 192.79)" d="m0 0c-8.858-6.095-17.587-16.242-23.267-23.258-0.937-0.951-8.075 8.25-7.521 8.808 2.406 5.064 12.44 18.533 22.885 25.689 1.026 0.698 8.587-10.58 7.903-11.239" clip-path="url(#clipPath185)" fill="#3eb5f1"/>
  <g fill="#2f98db">
   <path transform="matrix(1.3333 0 0 -1.3333 654.38 229.13)" d="m0 0c0.266-0.433 0.159-0.998-0.222-1.292-0.381-0.293-0.906-0.19-1.173 0.223-0.274 0.446-0.172 1.018 0.215 1.319 0.387 0.28 0.92 0.155 1.18-0.25" clip-path="url(#clipPath187)"/>
   <path transform="matrix(1.3333 0 0 -1.3333 650.32 237.85)" d="m0 0c0.224-0.365 0.099-0.863-0.271-1.157-0.369-0.254-0.846-0.21-1.058 0.127-0.207 0.352-0.086 0.85 0.276 1.131 0.369 0.267 0.841 0.224 1.053-0.101" clip-path="url(#clipPath189)"/>
   <path transform="matrix(1.3333 0 0 -1.3333 646.72 247.65)" d="m0 0c0.169-0.284 0.063-0.701-0.257-0.942-0.307-0.24-0.711-0.211-0.892 0.086-0.171 0.284-0.071 0.708 0.244 0.941 0.313 0.248 0.717 0.198 0.905-0.085" clip-path="url(#clipPath191)"/>
   <path transform="matrix(1.3333 0 0 -1.3333 652.61 221.61)" d="m0 0c0.26-0.432 0.146-0.997-0.228-1.278-0.388-0.307-0.914-0.196-1.175 0.216-0.26 0.439-0.165 1.004 0.21 1.298 0.381 0.294 0.913 0.197 1.193-0.236" clip-path="url(#clipPath193)"/>
   <path transform="matrix(1.3333 0 0 -1.3333 648.35 230.49)" d="m0 0c0.212-0.338 0.099-0.85-0.271-1.143-0.38-0.268-0.845-0.224-1.052 0.134-0.212 0.331-0.093 0.856 0.271 1.136 0.368 0.254 0.834 0.211 1.052-0.127" clip-path="url(#clipPath195)"/>
   <path transform="matrix(1.3333 0 0 -1.3333 644.62 240.02)" d="m0 0c0.183-0.284 0.063-0.722-0.231-0.969-0.314-0.227-0.719-0.185-0.907 0.1-0.174 0.284-0.062 0.708 0.245 0.962 0.327 0.233 0.724 0.19 0.893-0.093" clip-path="url(#clipPath197)"/>
   <path transform="matrix(1.3333 0 0 -1.3333 717.05 166.78)" d="m0 0c0.273-0.429 0.141-1.014-0.271-1.328-0.418-0.337-0.975-0.236-1.229 0.179-0.26 0.436-0.141 1.028 0.272 1.341 0.405 0.302 0.968 0.245 1.228-0.192" clip-path="url(#clipPath199)"/>
   <path transform="matrix(1.3333 0 0 -1.3333 708.23 173)" d="m0 0c0.259-0.415 0.14-1.021-0.277-1.334-0.407-0.324-0.963-0.237-1.231 0.186-0.26 0.429-0.146 1.021 0.272 1.329 0.43 0.322 0.969 0.235 1.236-0.181" clip-path="url(#clipPath201)"/>
   <path transform="matrix(1.3333 0 0 -1.3333 699.48 179.55)" d="m0 0c0.237-0.408 0.135-0.98-0.246-1.261-0.387-0.287-0.894-0.204-1.161 0.205-0.243 0.402-0.142 0.954 0.245 1.262 0.369 0.287 0.895 0.186 1.162-0.206" clip-path="url(#clipPath203)"/>
   <path transform="matrix(1.3333 0 0 -1.3333 708.79 164.5)" d="m0 0c0.261-0.419 0.135-1.022-0.271-1.342-0.431-0.314-0.981-0.229-1.254 0.2-0.26 0.422-0.141 1 0.283 1.324 0.412 0.328 0.982 0.24 1.242-0.182" clip-path="url(#clipPath205)"/>
   <path transform="matrix(1.3333 0 0 -1.3333 701.15 169.58)" d="m0 0c0.261-0.423 0.178-0.995-0.204-1.296-0.379-0.28-0.925-0.176-1.185 0.227-0.261 0.442-0.159 1.007 0.222 1.301 0.375 0.288 0.9 0.186 1.167-0.232" clip-path="url(#clipPath207)"/>
   <path transform="matrix(1.3333 0 0 -1.3333 693.18 175.17)" d="m0 0c0.261-0.402 0.135-0.964-0.246-1.25-0.382-0.298-0.9-0.198-1.15 0.205-0.242 0.402-0.147 0.961 0.253 1.248 0.376 0.3 0.883 0.214 1.143-0.203" clip-path="url(#clipPath209)"/>
  </g>
 </g>
</svg>
