<svg xmlns="http://www.w3.org/2000/svg" width="1308.725" height="389.99" xmlns:v="https://vecta.io/nano"><defs><clipPath ><path d="M0 1024h1024V0H0z"/></clipPath><clipPath id="B"><path d="M0 1024h1024V0H0z" transform="translate(-259.762 -785.071)"/></clipPath></defs><g fill="white"><path d="M0 0h-8.188l-21.918-23.389h-.197v47.514h-6.276V-50.21h6.276v24.467h.197L-7.012-50.21h8.875l-25.399 25.938zm91.938 0l-15.25-39.962a18.05 18.05 0 0 1-.613-1.888l-.466-1.692h-.245l-.514 1.986-.564 1.79L59.919 0h-6.963l19.319-49.965-4.364-10.297c-1.111-2.615-2.427-4.568-3.947-5.86s-3.31-1.937-5.369-1.937a12.7 12.7 0 0 0-2.231.197 13.1 13.1 0 0 0-2.182.588v-5.884c1.242-.425 2.762-.637 4.56-.637 3.629 0 6.717 1.185 9.267 3.554s4.805 6.007 6.767 10.91L98.557 0zM-68.549 1.177c-7.486 0-13.092-3.302-16.818-9.905h-.196V0h-6.277v-50.21h6.277v28.733c0 2.452.383 4.732 1.152 6.84s1.83 3.93 3.187 5.468a14.58 14.58 0 0 0 4.83 3.604c1.863.865 3.89 1.299 6.08 1.299 8.238 0 12.356-5.672 12.356-17.015V-50.21h6.277v30.596c0 6.734-1.439 11.883-4.315 15.446s-7.061 5.345-12.553 5.345m80.317-21.918c.359 2.55.988 4.845 1.888 6.889s2.035 3.775 3.408 5.197 2.966 2.509 4.781 3.261 3.783 1.128 5.908 1.128c4.249 0 7.567-1.439 9.954-4.315s3.628-6.931 3.727-12.16zM42.733-5.345c-1.684 2.092-3.768 3.702-6.252 4.83S31.136 1.177 27.9 1.177c-3.302 0-6.342-.662-9.12-1.986s-5.181-3.155-7.208-5.492-3.613-5.108-4.756-8.311S5.1-21.297 5.1-25.056c0-4.185.522-7.911 1.569-11.18s2.533-6.023 4.462-8.262 4.265-3.947 7.012-5.124 5.802-1.765 9.169-1.765c6.832 0 12.65 1.716 17.456 5.148v6.178c-5.035-3.955-10.379-5.933-16.034-5.933-2.648 0-5.026.45-7.134 1.349s-3.899 2.198-5.37 3.898-2.599 3.776-3.383 6.227-1.194 5.214-1.226 8.287h36.285v3.138c0 3.727-.442 7.093-1.324 10.101s-2.166 5.557-3.849 7.649m-240.73-27.459c-.556-1.242-1.022-2.402-1.398-3.481l-1.25-3.579h-.294c-.393 1.307-.826 2.541-1.3 3.701l-1.446 3.409-23.879 52.858h-7.699v-61.072h6.375v39.84l-.074 6.423a85.68 85.68 0 0 1-.269 5.149h.196c.751-2.975 1.487-5.279 2.206-6.914l20.341-44.498h11.21l20.327 44.842c.326.686.678 1.568 1.054 2.647s.792 2.354 1.25 3.825h.196c-.392-5.525-.588-9.53-.588-12.013v-39.301h6.423v61.072h-7.306zm87.23 27.018c-2.027 2.255-4.495 3.979-7.404 5.173s-6.178 1.79-9.807 1.79c-3.792 0-7.224-.606-10.296-1.815s-5.697-2.966-7.871-5.271-3.849-5.108-5.025-8.409-1.766-7.045-1.766-11.228c0-3.858.556-7.372 1.667-10.543.622-1.771 1.412-3.388 2.339-4.879h7.89c-.18.19-.372.364-.544.564-1.553 1.798-2.754 3.955-3.604 6.473s-1.275 5.344-1.275 8.482c0 3.335.424 6.317 1.275 8.949s2.067 4.854 3.653 6.668 3.489 3.195 5.712 4.144 4.707 1.422 7.453 1.422c5.59 0 9.888-1.79 12.896-5.369s4.511-8.753 4.511-15.519c0-3.303-.385-6.244-1.152-8.826s-1.905-4.765-3.408-6.546c-.132-.157-.281-.292-.417-.442h.008v-7.103c1.846 1.095 3.497 2.411 4.92 3.99 2.092 2.32 3.702 5.091 4.83 8.311s1.692 6.791 1.692 10.714c0 4.119-.54 7.796-1.618 11.032s-2.632 5.982-4.659 8.238" transform="matrix(1.333333 0 0 -1.333333 313.6836 32.1666)" clip-path="url(#B)"/><path d="M154.521 116.536H90.334V315.27H64.287V116.536H.271V92.974h154.25zm128.043 125.719H170.486c.414 17.68 5.172 31.324 14.266 40.937 9.094 9.605 21.598 14.406 37.516 14.406 17.875 0 34.305-5.891 49.297-17.672v23.875c-13.961 10.125-32.406 15.187-55.344 15.187-22.43 0-40.055-7.207-52.875-21.625-12.813-14.414-19.219-34.695-19.219-60.844 0-24.695 7-44.82 21-60.375 14.008-15.563 31.398-23.344 52.172-23.344 20.781 0 36.852 6.719 48.219 20.156s17.047 32.094 17.047 55.969zm-26.047-21.547c-.094-14.676-3.633-26.094-10.609-34.25-6.98-8.164-16.668-12.25-29.062-12.25-11.992 0-22.172 4.289-30.547 12.859s-13.543 19.789-15.5 33.641zm172.715 87.281c-12.199 7.332-26.668 11-43.406 11-22.637 0-40.906-7.359-54.812-22.078-13.898-14.727-20.844-33.828-20.844-57.297 0-26.145 7.492-47.148 22.484-63.016s34.988-23.797 60-23.797c13.945 0 26.242 2.586 36.891 7.75v26.047c-11.781-8.258-24.391-12.391-37.828-12.391-16.23 0-29.539 5.813-39.922 17.437s-15.578 26.891-15.578 45.797c0 18.605 4.879 33.281 14.641 44.031 9.77 10.75 22.875 16.125 39.312 16.125 13.844 0 26.863-4.598 39.062-13.797zm170.238 7.281h-25.422v-91.469c0-33.062-12.297-49.594-36.891-49.594-12.406 0-22.852 4.781-31.328 14.344-8.469 9.555-12.703 21.824-12.703 36.812v89.906h-25.422V80.255h25.422V182.88h.625c12.187-20.051 29.547-30.078 52.078-30.078 35.758 0 53.641 21.555 53.641 64.656zm79.208.001V92.974h61.391c78.344 0 117.516 36.121 117.516 108.359 0 34.312-10.883 61.883-32.641 82.703-21.75 20.824-50.871 31.234-87.359 31.234zm26.047-198.734v175.172h33.172c29.145 0 51.828-7.801 68.047-23.406 16.227-15.602 24.344-37.723 24.344-66.359 0-56.937-30.281-85.406-90.844-85.406zm306.726 198.734h-25.422v-24.797h-.609c-11.062 19.012-27.344 28.516-48.844 28.516-15.812 0-28.187-4.18-37.125-12.547-8.937-8.375-13.406-19.488-13.406-33.344 0-29.656 17.461-46.91 52.391-51.766l47.594-6.672c0-26.969-10.902-40.453-32.703-40.453-19.125 0-36.387 6.512-51.781 19.531v-26.047c15.602-9.926 33.586-14.891 53.953-14.891 37.301 0 55.953 19.742 55.953 59.219zm-25.422-80.297l-38.281 5.266c-11.781 1.656-20.672 4.578-26.672 8.766-5.992 4.18-8.984 11.59-8.984 22.234 0 7.75 2.758 14.086 8.281 19 5.531 4.906 12.895 7.359 22.094 7.359 12.613 0 23.023-4.414 31.234-13.25 8.219-8.844 12.328-20.031 12.328-33.562zm199.738-78.453l-73.016 184.172c-13.023 32.863-31.312 49.297-54.875 49.297-6.617 0-12.148-.672-16.594-2.016v-22.781c5.477 1.852 10.492 2.781 15.047 2.781 12.813 0 22.422-7.648 28.828-22.937l12.703-30.078-62-158.437h28.219l42.937 122.172c.508 1.543 1.594 5.57 3.25 12.078h.937c.508-2.477 1.539-6.406 3.094-11.781l45.109-122.469zm17.707 153.016v-27.281c13.844 10.23 29.086 15.344 45.734 15.344 22.32 0 33.484-7.441 33.484-22.328 0-4.227-.961-7.816-2.875-10.766-1.906-2.945-4.492-5.555-7.75-7.828-3.25-2.281-7.074-4.32-11.469-6.125l-14.188-5.656c-7.031-2.789-13.211-5.609-18.531-8.453s-9.766-6.047-13.328-9.609-6.25-7.617-8.062-12.172c-1.805-4.551-2.703-9.875-2.703-15.969 0-7.437 1.703-14.02 5.109-19.75 3.406-5.738 7.953-10.547 13.641-14.422 5.688-3.883 12.172-6.805 19.453-8.766 7.289-1.969 14.812-2.953 22.562-2.953 13.738 0 26.035 2.383 36.891 7.141v25.734c-11.68-7.645-25.109-11.469-40.297-11.469-4.762 0-9.055.543-12.875 1.625s-7.105 2.609-9.844 4.578c-2.742 1.961-4.859 4.309-6.359 7.047s-2.25 5.762-2.25 9.062c0 4.137.75 7.602 2.25 10.391s3.695 5.277 6.594 7.453c2.895 2.168 6.406 4.133 10.531 5.891 4.133 1.75 8.836 3.656 14.109 5.719 7.031 2.687 13.336 5.453 18.922 8.297s10.336 6.047 14.266 9.609 6.945 7.672 9.062 12.328c2.113 4.648 3.172 10.18 3.172 16.594 0 7.855-1.73 14.68-5.188 20.469-3.461 5.781-8.086 10.586-13.875 14.406-5.781 3.824-12.449 6.664-20 8.516-7.543 1.863-15.449 2.797-23.719 2.797-16.324 0-30.48-3.152-42.469-9.453zm0 0"/></g></svg>